<?xml version="1.0" encoding="utf-8"?>
<!-- Generator: Adobe Illustrator 22.0.0, SVG Export Plug-In . SVG Version: 6.00 Build 0)  -->
<svg version="1.1" id="Camada_1" xmlns="http://www.w3.org/2000/svg" xmlns:xlink="http://www.w3.org/1999/xlink" x="0px" y="0px"
	 width="64px" height="64px" viewBox="0 0 64 64" enable-background="new 0 0 64 64" xml:space="preserve">
<g>
	<g>
		<path fill="#D2B981" d="M19.023,14.441c0-4.597,0.001-9.194-0.001-13.792c0-0.717-0.015-0.647,0.663-0.647
			c5.865-0.001,11.731-0.001,17.596,0.001c0.574,0,0.473-0.05,0.55,0.518c0.042,0.309,0.034,0.631-0.019,0.947
			c-0.028,0.167-0.019,0.34-0.019,0.51c-0.001,0.817-0.03,1.635,0.009,2.451c0.043,0.902,0.034,1.802,0.043,2.703
			c0,0.037-0.002,0.074,0.003,0.11c0.021,0.152,0.091,0.187,0.222,0.091c0.305-0.221,0.604-0.452,0.905-0.679
			c1.164-0.88,2.329-1.759,3.493-2.639c0.728-0.55,1.454-1.101,2.182-1.651c0.049-0.037,0.092-0.082,0.145-0.111
			c0.085-0.046,0.142-0.008,0.155,0.082c0.012,0.084,0.01,0.17,0.01,0.255c0.001,1.646-0.006,3.293,0.008,4.939
			c0.003,0.319-0.12,0.519-0.363,0.701c-1.45,1.086-2.894,2.181-4.339,3.274c-0.689,0.521-1.371,1.049-2.065,1.563
			c-0.242,0.18-0.381,0.374-0.361,0.699c0.038,0.596-0.077,1.19-0.047,1.788c0.104,2.12,0.029,4.241,0.056,6.361
			c0.005,0.355-0.079,0.703-0.053,1.057c0.035,0.474,0.061,0.947,0.05,1.423c-0.004,0.207-0.026,0.413-0.038,0.618
			c-0.015,0.261-0.13,0.423-0.33,0.571c-1.084,0.804-2.164,1.614-3.243,2.426c-0.272,0.205-0.533,0.424-0.804,0.63
			c-0.149,0.114-0.197,0.095-0.243-0.093c-0.06-0.249-0.022-0.504-0.019-0.755c0.002-0.155,0.027-0.314,0.027-0.472
			c0.001-3.28,0.001-6.561,0.001-9.841c0-0.012,0.001-0.025,0-0.037c-0.02-0.137,0.068-0.317-0.102-0.395
			c-0.146-0.068-0.249,0.078-0.349,0.152c-0.996,0.74-1.986,1.488-2.978,2.234c-0.933,0.702-1.867,1.403-2.799,2.107
			c-0.96,0.726-1.918,1.455-2.877,2.183c-0.256,0.194-0.373,0.424-0.383,0.771c-0.02,0.669-0.033,1.338-0.04,2.008
			c-0.003,0.342,0.079,0.677,0.054,1.02c-0.025,0.352-0.04,0.704-0.054,1.056c-0.006,0.148-0.067,0.228-0.221,0.225
			c-0.061-0.001-0.122,0.001-0.183,0.001c-1.268,0.001-2.536,0.002-3.805,0.002c-0.073,0-0.146,0-0.219-0.004
			c-0.129-0.008-0.203-0.078-0.212-0.206c-0.007-0.097-0.007-0.195-0.007-0.292c0-4.622,0-9.243,0-13.865
			C19.024,14.441,19.023,14.441,19.023,14.441z M23.722,11.362c-0.001,0-0.002,0-0.002,0c0,2.073,0,4.145,0,6.218
			c0,0.098-0.006,0.196,0.005,0.292c0.017,0.142,0.1,0.184,0.231,0.123c0.043-0.02,0.081-0.054,0.119-0.083
			c0.76-0.569,1.522-1.134,2.278-1.707c1.609-1.221,3.215-2.446,4.823-3.668c0.533-0.405,1.069-0.805,1.604-1.206
			c0.259-0.194,0.383-0.422,0.377-0.772c-0.022-1.463-0.009-2.926-0.009-4.389c0-0.39,0.002-0.78-0.001-1.17
			c-0.003-0.321-0.029-0.344-0.36-0.351c-0.037-0.001-0.073,0-0.11,0c-2.829,0-5.657,0-8.486,0c-0.073,0-0.146,0.002-0.219,0.001
			c-0.162-0.002-0.253,0.068-0.251,0.239c0.001,0.085-0.001,0.171-0.001,0.256C23.722,7.217,23.722,9.29,23.722,11.362z"/>
		<path fill="#D2B981" d="M33.198,52.344c0-3.707,0-7.414,0-11.121c0-0.037,0.003-0.073-0.001-0.11
			c-0.011-0.129,0.052-0.293-0.095-0.366c-0.17-0.085-0.295,0.049-0.421,0.143c-0.806,0.608-1.61,1.216-2.418,1.822
			c-0.564,0.423-1.132,0.842-1.698,1.264c-0.337,0.251-0.382,0.254-0.738,0.013c-0.564-0.383-1.083-0.826-1.626-1.237
			c-0.718-0.542-1.435-1.086-2.155-1.625c-0.075-0.056-0.161-0.13-0.266-0.086c-0.128,0.054-0.108,0.178-0.108,0.285
			c-0.001,0.902,0.001,1.805,0.001,2.707c0,2.11-0.035,4.22,0.011,6.329c0.045,2.048,0.035,4.095,0.037,6.142
			c0.001,1.41-0.037,2.82-0.044,4.231c-0.003,0.556,0.025,1.113,0.048,1.669c0.019,0.452-0.032,0.9-0.051,1.349
			C23.667,63.92,23.596,64,23.43,63.998c-0.049-0.001-0.098,0.001-0.146,0.001c-1.28,0-2.561,0.001-3.841-0.001
			c-0.394-0.001-0.472-0.061-0.409-0.445c0.053-0.321-0.015-0.629-0.015-0.943c0.005-8.841,0.004-17.682,0.006-26.523
			c0-0.34,0.039-0.68,0.05-1.02c0.006-0.173,0.088-0.24,0.251-0.234c0.073,0.003,0.146-0.001,0.219-0.001
			c1.158,0.001,2.317,0.008,3.475-0.003c0.298-0.003,0.544,0.08,0.776,0.26c0.854,0.664,1.713,1.323,2.571,1.982
			c0.521,0.4,1.043,0.798,1.565,1.196c0.239,0.182,0.26,0.177,0.534-0.015c1.611-1.136,3.163-2.35,4.734-3.538
			c1.736-1.313,3.466-2.635,5.203-3.947c1.097-0.828,2.184-1.669,3.289-2.487c0.919-0.68,1.808-1.4,2.718-2.093
			c0.14-0.106,0.297-0.311,0.463-0.241c0.191,0.081,0.084,0.328,0.084,0.499c0.007,1.597-0.003,3.195,0.01,4.792
			c0.002,0.292-0.102,0.461-0.332,0.631c-0.773,0.569-1.524,1.169-2.289,1.75c-0.591,0.448-1.199,0.874-1.786,1.328
			c-0.827,0.64-1.693,1.229-2.498,1.9c-0.131,0.109-0.216,0.213-0.217,0.392c-0.007,0.779-0.064,1.557-0.052,2.337
			c0.122,7.912,0.025,15.825,0.053,23.738c0.002,0.685,0,0.685-0.671,0.685c-1.146,0-2.293,0-3.439,0
			c-0.085,0-0.171,0.003-0.256-0.002c-0.248-0.013-0.268-0.033-0.281-0.276c-0.004-0.073-0.001-0.146-0.001-0.219
			C33.197,59.783,33.197,56.063,33.198,52.344z"/>
	</g>
</g>
</svg>
