<?xml version="1.0" encoding="utf-8"?>
<!-- Generator: Adobe Illustrator 22.0.0, SVG Export Plug-In . SVG Version: 6.00 Build 0)  -->
<svg version="1.1" id="Camada_1" xmlns="http://www.w3.org/2000/svg" xmlns:xlink="http://www.w3.org/1999/xlink" x="0px" y="0px"
	 width="64px" height="64px" viewBox="0 0 64 64" enable-background="new 0 0 64 64" xml:space="preserve">
<g>
	<g>
		<path fill="#F7ECDA" d="M25.111,56c-8.214,0-16.428,0-24.642-0.003c-0.152,0-0.357,0.084-0.445-0.077
			c-0.087-0.158,0.086-0.287,0.164-0.422c1.048-1.821,2.092-3.644,3.143-5.463c1.037-1.796,2.081-3.587,3.12-5.382
			c0.282-0.486,0.544-0.985,0.84-1.462c0.174-0.281,0.054-0.319-0.194-0.318c-0.846,0.002-1.691-0.004-2.537,0.004
			c-0.278,0.003-0.443,0.02-0.229-0.346c1.318-2.251,2.616-4.514,3.917-6.776c0.667-1.16,1.323-2.326,1.993-3.485
			c0.13-0.224,0.117-0.398-0.016-0.626c-1.098-1.884-2.179-3.779-3.268-5.668c-0.856-1.483-1.718-2.963-2.572-4.447
			c-0.077-0.133-0.239-0.28-0.15-0.427c0.076-0.126,0.274-0.051,0.417-0.052c0.805-0.005,1.611-0.012,2.416,0.002
			c0.317,0.005,0.343-0.094,0.198-0.342c-0.816-1.398-1.628-2.799-2.438-4.2c-0.971-1.68-1.939-3.361-2.908-5.042
			c-0.575-0.997-1.154-1.991-1.725-2.99C0.118,8.346-0.048,8.201,0.047,8.052c0.078-0.122,0.275-0.05,0.419-0.05
			C16.894,8,33.322,8.002,49.749,7.992c0.394,0,0.586,0.137,0.776,0.473c1.027,1.817,2.089,3.614,3.132,5.422
			c1.157,2.005,2.305,4.015,3.463,6.019c1.044,1.807,2.098,3.609,3.141,5.417c1.076,1.866,2.144,3.738,3.216,5.606
			c0.093,0.162,0.165,0.346,0.289,0.48c0.373,0.4,0.246,0.757,0.003,1.174c-1.806,3.097-3.594,6.206-5.389,9.309
			c-1.661,2.872-3.326,5.743-4.988,8.614c-0.998,1.725-2.004,3.447-2.982,5.184c-0.159,0.282-0.346,0.313-0.616,0.313
			C42.881,55.999,35.969,56,29.057,56C27.741,56,26.426,56,25.111,56z M9.161,39.974c1.06,0,2.025,0.004,2.991-0.003
			c0.265-0.002,0.337,0.029,0.174,0.303c-0.736,1.244-1.448,2.502-2.169,3.754c-1.048,1.821-2.096,3.642-3.146,5.462
			c-0.642,1.113-1.289,2.222-1.932,3.334c-0.038,0.067-0.108,0.144-0.057,0.22c0.055,0.082,0.142,0.022,0.219,0.013
			c0.172-0.02,0.346-0.033,0.519-0.033c14.121-0.001,28.242-0.002,42.362,0.001c0.26,0,0.492,0.008,0.644-0.276
			c0.316-0.59,0.658-1.166,0.992-1.745c0.968-1.681,1.938-3.362,2.908-5.043c0.936-1.623,1.875-3.244,2.811-4.867
			c0.963-1.669,1.921-3.341,2.885-5.01c0.736-1.275,1.474-2.548,2.217-3.819c0.122-0.208,0.116-0.363-0.016-0.582
			c-0.484-0.802-0.927-1.628-1.396-2.439c-1.66-2.873-3.326-5.743-4.988-8.616c-1.796-3.104-3.597-6.206-5.372-9.321
			c-0.182-0.32-0.363-0.414-0.713-0.414C33.894,10.901,19.693,10.9,5.491,10.9c-0.094,0-0.188,0.001-0.282,0
			c-0.182-0.001-0.251,0.037-0.133,0.232c0.298,0.492,0.575,0.997,0.864,1.495c0.932,1.61,1.866,3.218,2.797,4.828
			c0.984,1.703,1.968,3.406,2.945,5.113c0.253,0.442,0.549,0.864,0.761,1.38c-1.033,0-1.999,0.001-2.964-0.001
			c-0.198,0-0.377-0.004-0.215,0.276c0.826,1.423,1.65,2.848,2.476,4.272c0.631,1.088,1.263,2.176,1.892,3.265
			c0.073,0.126,0.121,0.232,0.023,0.4c-1.116,1.905-2.218,3.818-3.32,5.732C9.95,38.56,9.577,39.236,9.161,39.974z"/>
		<path fill="#F7ECDA" d="M20.932,15.249c2.644,0,5.288,0.005,7.933-0.007c0.306-0.001,0.469,0.086,0.625,0.365
			c0.829,1.483,1.683,2.953,2.546,4.417c0.126,0.214,0.151,0.372,0.024,0.583c-0.297,0.493-0.562,1.005-0.87,1.49
			c-0.198,0.311-0.193,0.572,0.003,0.881c0.322,0.508,0.605,1.041,0.918,1.555c0.083,0.137,0.074,0.226-0.004,0.361
			c-0.891,1.541-1.775,3.085-2.658,4.631c-0.124,0.217-0.28,0.307-0.547,0.306c-3.664-0.01-7.329-0.01-10.993,0
			c-0.266,0.001-0.423-0.088-0.548-0.307c-0.43-0.756-0.865-1.51-1.304-2.26c-0.143-0.245-0.125-0.349,0.196-0.344
			c0.819,0.014,1.637,0.005,2.456,0.004c0.49,0,0.504-0.01,0.254-0.448c-0.63-1.104-1.273-2.201-1.91-3.301
			c-0.349-0.602-0.696-1.205-1.042-1.809c-0.119-0.207-0.09-0.322,0.182-0.321c0.926,0.005,1.852,0.006,2.778-0.002
			c0.179-0.001,0.257,0.088,0.337,0.227c0.78,1.357,1.565,2.712,2.35,4.066c0.255,0.44,0.524,0.872,0.772,1.315
			c0.112,0.201,0.26,0.277,0.488,0.275c1.45-0.007,2.899-0.01,4.349,0.003c0.243,0.002,0.372-0.102,0.477-0.286
			c0.307-0.533,0.603-1.074,0.926-1.597c0.157-0.254,0.129-0.463-0.017-0.703c-0.319-0.526-0.606-1.072-0.936-1.591
			c-0.117-0.184-0.095-0.312,0.001-0.474c0.33-0.551,0.649-1.108,0.984-1.656c0.112-0.183,0.112-0.339,0.005-0.522
			c-0.344-0.589-0.685-1.181-1.014-1.779c-0.121-0.221-0.313-0.172-0.493-0.172c-3.772-0.002-7.543-0.001-11.315-0.002
			c-0.47,0-0.94-0.008-1.409,0.004c-0.21,0.005-0.348-0.055-0.457-0.246c-0.436-0.768-0.879-1.532-1.333-2.289
			c-0.182-0.303-0.109-0.375,0.229-0.374C15.59,15.253,18.261,15.249,20.932,15.249z"/>
		<path fill="#F7ECDA" d="M41.127,23.912c0.096,0.069,0.206,0.035,0.308,0.035c1.945,0.002,3.891,0.003,5.836-0.001
			c0.115,0,0.267,0.06,0.336-0.056c0.071-0.118-0.057-0.216-0.115-0.317c-0.967-1.681-1.94-3.359-2.895-5.047
			c-0.15-0.266-0.311-0.385-0.626-0.383c-1.932,0.013-3.864,0.007-5.796,0.006c-0.482,0-0.487-0.006-0.253-0.416
			c0.417-0.732,0.844-1.459,1.257-2.194c0.11-0.196,0.241-0.294,0.475-0.293c2.039,0.006,4.079,0.009,6.118-0.003
			c0.256-0.001,0.359,0.142,0.46,0.316c0.638,1.099,1.272,2.2,1.907,3.301c0.936,1.622,1.872,3.244,2.809,4.865
			c0.97,1.68,1.94,3.359,2.908,5.039c0.154,0.267,0.288,0.545,0.454,0.804c0.119,0.185,0.107,0.259-0.126,0.258
			c-0.966-0.002-1.932-0.005-2.898,0.002c-0.187,0.001-0.248-0.111-0.324-0.245c-0.428-0.757-0.868-1.507-1.291-2.267
			c-0.159-0.286-0.355-0.402-0.7-0.4c-3.072,0.015-6.145,0.015-9.218,0c-0.332-0.002-0.509,0.111-0.661,0.387
			c-0.425,0.774-0.876,1.533-1.306,2.305c-0.092,0.166-0.207,0.22-0.387,0.219c-0.912-0.005-1.825-0.004-2.737-0.001
			c-0.263,0.001-0.343-0.051-0.185-0.323c1.415-2.427,2.817-4.861,4.223-7.293c0.12-0.208,0.267-0.408,0.349-0.631
			c0.16-0.433,0.44-0.565,0.896-0.542c0.79,0.04,1.583,0.009,2.374,0.013c0.101,0,0.235-0.052,0.296,0.058
			c0.06,0.107-0.045,0.196-0.097,0.286c-0.437,0.752-0.874,1.503-1.309,2.256C41.165,23.728,41.101,23.806,41.127,23.912z"/>
		<path fill="#F7ECDA" d="M24.221,34.175c-0.579,1.014-1.114,1.954-1.651,2.893c-0.499,0.871-0.988,1.747-1.507,2.606
			c-0.167,0.276-0.087,0.303,0.175,0.302c1.53-0.005,3.062-0.045,4.589,0.017c0.696,0.028,1.062-0.184,1.391-0.801
			c0.837-1.569,1.768-3.088,2.651-4.633c0.164-0.286,0.362-0.405,0.705-0.393c0.818,0.028,1.637,0.019,2.456,0.004
			c0.323-0.006,0.423,0.051,0.236,0.369c-1.041,1.778-2.072,3.562-3.105,5.345c-0.53,0.915-1.065,1.827-1.58,2.75
			c-0.112,0.2-0.243,0.245-0.45,0.243c-0.886-0.008-1.772,0-2.657-0.006c-0.267-0.002-0.414-0.012-0.211,0.332
			c1.018,1.73,2.009,3.475,3.011,5.215c0.04,0.069,0.095,0.132,0.057,0.254c-1.033,0-2.076-0.001-3.119,0.001
			c-0.163,0-0.227-0.108-0.297-0.23c-1.013-1.764-2.034-3.523-3.038-5.292c-0.127-0.225-0.275-0.283-0.513-0.282
			c-1.678,0.008-3.355,0.005-5.033,0.004c-0.454,0-0.464-0.016-0.245-0.396c0.976-1.692,1.95-3.386,2.934-5.073
			c0.161-0.276,0.094-0.337-0.2-0.334c-0.845,0.011-1.691-0.002-2.537,0.006c-0.315,0.003-0.428-0.037-0.221-0.374
			c0.462-0.752,0.886-1.528,1.319-2.298c0.077-0.137,0.149-0.234,0.331-0.234C19.859,34.177,22.004,34.175,24.221,34.175z"/>
		<path fill="#F7ECDA" d="M54.43,34.188c-0.387,0.677-0.742,1.301-1.1,1.923c-0.681,1.182-1.371,2.359-2.038,3.548
			c-0.129,0.231-0.264,0.326-0.53,0.321c-0.845-0.016-1.69-0.005-2.535-0.006c-0.456-0.001-0.465-0.015-0.248-0.394
			c0.399-0.696,0.802-1.39,1.204-2.085c0.222-0.384,0.205-0.42-0.22-0.42c-2.213-0.001-4.427-0.001-6.64,0
			c-0.43,0-0.437,0.017-0.23,0.38c0.975,1.707,1.945,3.418,2.933,5.117c0.157,0.269,0.099,0.306-0.172,0.304
			c-0.899-0.008-1.798-0.008-2.696,0.001c-0.233,0.002-0.365-0.093-0.478-0.289c-0.98-1.704-1.963-3.407-2.956-5.103
			c-0.168-0.287-0.175-0.531-0.002-0.819c0.42-0.699,0.818-1.412,1.227-2.118c0.13-0.224,0.265-0.384,0.587-0.383
			c4.547,0.014,9.095,0.009,13.642,0.01C54.23,34.175,54.283,34.18,54.43,34.188z"/>
		<path fill="#F7ECDA" d="M35.161,45.774c0.476,0,0.85,0,1.225,0c3.61,0,7.22-0.001,10.83,0.003c0.138,0,0.324-0.079,0.407,0.075
			c0.079,0.147-0.071,0.266-0.143,0.391c-0.417,0.717-0.841,1.43-1.243,2.156c-0.112,0.203-0.236,0.28-0.469,0.28
			c-3.999-0.007-7.999-0.007-11.998,0.001c-0.233,0-0.379-0.075-0.488-0.267c-0.45-0.791-0.9-1.582-1.353-2.371
			c-0.091-0.159-0.139-0.298-0.029-0.481c0.474-0.792,0.94-1.589,1.394-2.392c0.121-0.214,0.268-0.302,0.513-0.299
			c0.886,0.011,1.772,0.012,2.657,0c0.317-0.004,0.339,0.085,0.187,0.34C36.162,44.034,35.687,44.868,35.161,45.774z"/>
		<path fill="#F7ECDB" d="M14.198,48.674c-0.469,0-0.937-0.005-1.406,0.002c-0.227,0.003-0.256-0.088-0.153-0.265
			c0.477-0.819,0.957-1.636,1.428-2.458c0.09-0.157,0.213-0.179,0.368-0.179c0.91,0.002,1.821,0.003,2.731,0
			c0.254-0.001,0.356,0.043,0.19,0.32c-0.46,0.767-0.899,1.546-1.34,2.325c-0.105,0.185-0.241,0.264-0.454,0.259
			C15.109,48.667,14.654,48.674,14.198,48.674z"/>
	</g>
</g>
</svg>
