<?xml version="1.0" encoding="utf-8"?>
<!-- Generator: Adobe Illustrator 22.0.0, SVG Export Plug-In . SVG Version: 6.00 Build 0)  -->
<svg version="1.1" id="Camada_1" xmlns="http://www.w3.org/2000/svg" xmlns:xlink="http://www.w3.org/1999/xlink" x="0px" y="0px"
	 width="64px" height="64px" viewBox="0 0 64 64" enable-background="new 0 0 64 64" xml:space="preserve">
<g>
	<g>
		<path fill="#AFF3FB" d="M63.992,19.296c0.007,0.02,0.009,0.04,0.005,0.061c-1.319,0.003-2.638,0.006-3.956,0.01
			c-0.755,0.002-1.51,0.008-2.266,0.012c-1.349-0.02-2.699-0.019-4.048,0c-1.639,0-3.277,0-4.916,0c-1.422,0-2.843,0-4.265,0
			c-0.41-0.005-0.821-0.01-1.231-0.015c0-0.023,0.001-0.046,0.002-0.069C50.208,19.296,57.1,19.296,63.992,19.296z"/>
		<path fill="#AFF3FB" d="M0.006,19.353c-0.004-0.02-0.002-0.039,0.007-0.057c6.892,0,13.784,0,20.676,0
			c0,0.024-0.001,0.049-0.001,0.073c-0.313,0.003-0.627,0.007-0.94,0.01c-1.186-0.004-2.371-0.01-3.557-0.011
			c-0.814,0-1.629,0.007-2.443,0.01c-0.478-0.004-0.957-0.011-1.435-0.01c-1.16,0.002-2.321,0.007-3.481,0.011
			c-1.422,0-2.843,0-4.265,0c-0.658-0.004-1.317-0.008-1.975-0.012C1.73,19.362,0.868,19.358,0.006,19.353z"/>
		<path fill="#20C2E9" d="M19.748,19.379c0.313-0.003,0.627-0.007,0.94-0.01c1.571,1.68,3.165,3.337,4.764,4.989
			c0.058,0.06,0.108,0.128,0.161,0.193c-0.109,0.498-0.079,1.004-0.08,1.507c-0.001,1.914,0,3.829-0.001,5.743
			c0,0.096,0,0.193-0.003,0.289c-0.005,0.135-0.102,0.144-0.204,0.143c-0.108-0.095-0.22-0.185-0.322-0.286
			c-1.746-1.73-3.466-3.484-5.144-5.279c-0.041-0.043-0.074-0.093-0.111-0.14C19.748,24.145,19.748,21.762,19.748,19.379z"/>
		<path fill="#2BACE2" d="M48.528,44.651c-2.922,0.059-5.771-0.365-8.539-1.298c-2.336-0.787-4.602-1.986-5.86-3.131
			c0.155-0.231,0.382-0.394,0.577-0.585c1.006-0.986,2.016-1.967,3.025-2.949c0.211-0.206,0.177-0.252,0.452-0.007
			c2.174,1.94,4.382,3.839,6.728,5.57c0.581,0.429,1.176,0.838,1.773,1.244C47.28,43.9,47.903,44.264,48.528,44.651z"/>
		<path fill="#18D0EF" d="M19.748,19.379c0,2.383,0,4.765,0,7.148c-0.479-0.004-0.958-0.012-1.437-0.013
			c-1.39-0.002-2.779,0-4.169-0.001c-0.131,0-0.263-0.011-0.394-0.016c0-2.373,0-4.745,0-7.118c0.814-0.004,1.629-0.011,2.443-0.01
			C17.377,19.369,18.562,19.375,19.748,19.379z"/>
		<path fill="#0BE8F7" d="M48.81,19.379c1.639,0,3.277,0,4.916,0c0,2.361,0,4.723,0,7.084c-0.123,0.063-0.258,0.049-0.388,0.049
			c-1.461,0.002-2.923,0.001-4.384,0c-0.047,0-0.095-0.01-0.142-0.016C48.811,24.124,48.811,21.752,48.81,19.379z"/>
		<path fill="#12DBF2" d="M13.748,19.379c0,2.373,0,4.745,0,7.118c-1.312,0.013-2.625,0.073-3.935-0.054
			c-0.332-0.032-0.669-0.066-0.983-0.203c0-2.287,0.001-4.574,0.001-6.861c1.16-0.004,2.321-0.009,3.481-0.011
			C12.791,19.368,13.27,19.375,13.748,19.379z"/>
		<path fill="#0FE0F5" d="M48.81,19.379c0,2.373,0,4.745,0.001,7.118c-0.502,0.006-1.003,0.017-1.505,0.016
			c-0.92-0.002-1.84-0.01-2.76-0.016c0-2.373,0-4.745-0.001-7.118C45.967,19.379,47.389,19.379,48.81,19.379z"/>
		<path fill="#12DBF2" d="M44.545,19.379c0,2.373,0,4.745,0.001,7.118c-0.195-0.008-0.33,0.086-0.461,0.225
			c-0.957,1.008-1.921,2.01-2.885,3.01c-0.132,0.137-0.253,0.288-0.417,0.393c-0.072-0.183-0.07-0.374-0.07-0.566
			c0.001-2.317,0.002-4.633-0.002-6.95c0-0.139,0.049-0.289-0.056-0.416c0.401-0.428,0.802-0.857,1.203-1.284
			c0.484-0.515,0.97-1.03,1.455-1.544C43.725,19.369,44.135,19.374,44.545,19.379z"/>
		<path fill="#1ACBED" d="M30.232,32.6c1.115-1.082,2.23-2.164,3.347-3.245c0.068-0.066,0.146-0.124,0.219-0.185
			c0.175,0.103,0.118,0.275,0.119,0.423c0.003,2.124,0.002,4.248,0.002,6.372c0,0.096,0.001,0.192,0.001,0.288
			c-0.001,0.185,0.099,0.258,0.275,0.246c-0.396,0.422-0.837,0.795-1.27,1.176c-0.532,0.467-1.056,0.94-1.619,1.374
			c-0.363,0.279-0.74,0.555-1.058,0.893c-0.005-0.132-0.015-0.264-0.015-0.395C30.231,37.23,30.232,34.915,30.232,32.6z"/>
		<path fill="#18D0EF" d="M34.194,36.498c-0.176,0.012-0.275-0.06-0.275-0.246c0-0.096-0.001-0.192-0.001-0.288
			c0-2.124,0.001-4.248-0.002-6.372c0-0.148,0.056-0.32-0.119-0.423c0.168-0.237,0.395-0.419,0.598-0.623
			c0.89-0.895,1.781-1.788,2.673-2.681c0.05-0.05,0.107-0.094,0.161-0.141c0.241,0.047,0.155,0.241,0.155,0.378
			c0.005,2.234,0.005,4.468,0.001,6.701c0,0.206,0.016,0.406,0.079,0.602c-0.245,0.298-0.538,0.548-0.816,0.813
			c-0.758,0.721-1.523,1.435-2.286,2.15C34.312,36.417,34.25,36.455,34.194,36.498z"/>
		<path fill="#09EEFA" d="M53.726,26.463c0-2.361,0-4.723,0-7.084c1.349-0.019,2.699-0.02,4.048,0c0,1.767-0.001,3.535,0.002,5.302
			c0,0.137-0.057,0.293,0.082,0.404c-0.012,0.1-0.093,0.133-0.168,0.171c-1.024,0.512-2.065,0.977-3.212,1.147
			C54.228,26.441,53.979,26.472,53.726,26.463z"/>
		<path fill="#16D5F1" d="M37.465,33.405c-0.063-0.196-0.079-0.396-0.079-0.602c0.003-2.234,0.003-4.468-0.001-6.701
			c0-0.137,0.085-0.331-0.155-0.378c0.673-0.699,1.344-1.399,2.019-2.096c0.466-0.481,0.938-0.957,1.407-1.436
			c0.105,0.127,0.055,0.277,0.056,0.416c0.003,2.317,0.003,4.633,0.002,6.95c0,0.192-0.003,0.383,0.07,0.566
			c-0.537,0.616-1.14,1.169-1.717,1.746c-0.372,0.372-0.743,0.746-1.159,1.074C37.741,33.075,37.611,33.25,37.465,33.405z"/>
		<path fill="#0DE5F6" d="M8.832,19.379c0,2.287-0.001,4.574-0.001,6.861c-0.397-0.048-0.761-0.204-1.129-0.349
			c-1.052-0.416-2.046-0.944-2.985-1.575c-0.078-0.053-0.171-0.09-0.223-0.176c0.088-0.351,0.073-0.709,0.073-1.066
			c-0.001-1.232,0-2.463,0-3.695C5.989,19.379,7.41,19.379,8.832,19.379z"/>
		<path fill="#1DC5EB" d="M30.232,32.6c0,2.315-0.001,4.631,0,6.946c0,0.132,0.01,0.263,0.015,0.395
			c-1.046,0.877-2.155,1.656-3.41,2.21c-0.001-1.948-0.002-3.895-0.003-5.843c0-0.156,0.018-0.314-0.071-0.456
			c0.176-0.232,0.416-0.398,0.626-0.595C28.333,34.369,29.283,33.485,30.232,32.6z"/>
		<path fill="#20C2E9" d="M26.762,35.852c0.089,0.142,0.071,0.3,0.071,0.456c0.001,1.948,0.002,3.895,0.003,5.843
			c-0.513,0.315-1.075,0.527-1.629,0.755c-0.733,0.302-1.482,0.559-2.246,0.771c-0.103,0.029-0.21,0.045-0.315,0.067
			c-0.086-0.14-0.078-0.296-0.078-0.452c0-1.255-0.002-2.509-0.003-3.764c0.551-0.481,1.105-0.959,1.654-1.443
			c0.793-0.699,1.582-1.403,2.373-2.103C26.645,35.935,26.705,35.895,26.762,35.852z"/>
		<path fill="#06F5FC" d="M57.859,25.086c-0.139-0.112-0.082-0.268-0.082-0.404c-0.004-1.767-0.002-3.535-0.002-5.302
			c0.755-0.004,1.51-0.009,2.266-0.012c1.319-0.004,2.638-0.007,3.956-0.01c0.023,0.138-0.081,0.222-0.143,0.318
			c-1.411,2.168-3.236,3.902-5.473,5.204C58.216,24.974,58.047,25.053,57.859,25.086z"/>
		<path fill="#25B9E7" d="M25.324,32.233c0.102,0.001,0.199-0.007,0.204-0.143c0.004-0.096,0.003-0.193,0.003-0.289
			c0-1.914-0.001-3.829,0.001-5.743c0-0.504-0.029-1.009,0.08-1.507c0.331,0.262,0.597,0.59,0.894,0.886
			c1.132,1.129,2.26,2.263,3.389,3.396c0.22,0.221,0.221,0.225,0.003,0.442c-1.193,1.187-2.387,2.374-3.582,3.56
			c-0.202,0.201-0.211,0.205-0.418-0.008C25.707,32.629,25.483,32.462,25.324,32.233z"/>
		<path fill="#25B9E7" d="M22.565,39.528c0.001,1.255,0.003,2.509,0.003,3.764c0,0.156-0.007,0.311,0.078,0.452
			c-0.621,0.234-1.274,0.345-1.921,0.471c-1.646,0.32-3.311,0.464-4.987,0.489c-0.072,0.001-0.145,0-0.217-0.004
			c-0.021-0.001-0.041-0.019-0.063-0.031c-0.014-0.083,0.063-0.09,0.106-0.114c1.853-1.02,3.539-2.282,5.195-3.588
			C21.363,40.491,21.963,40.008,22.565,39.528z"/>
		<path fill="#18D0EF" d="M15.917,29.052c0.876,0.003,1.752,0.012,2.628,0.003c0.187-0.002,0.215,0.167,0.336,0.23
			c0,1.627,0,3.254,0,4.881c-0.991,0.015-1.984,0.086-2.963-0.145C15.917,32.365,15.917,30.709,15.917,29.052z"/>
		<path fill="#12DBF2" d="M15.917,29.052c0,1.656,0,3.313,0,4.969c-0.878-0.14-1.673-0.509-2.456-0.906
			c-0.288-0.146-0.583-0.285-0.836-0.494c0.17-0.193,0.183-0.428,0.183-0.668c-0.001-0.985-0.001-1.97-0.001-2.956
			C13.845,28.986,14.882,28.97,15.917,29.052z"/>
		<path fill="#09EEFA" d="M4.567,19.379c0,1.232,0,2.463,0,3.695c0,0.357,0.014,0.715-0.073,1.066
			c-0.428-0.244-0.811-0.551-1.186-0.865c-1.232-1.03-2.271-2.234-3.149-3.577c-0.068-0.104-0.187-0.194-0.153-0.346
			c0.862,0.005,1.724,0.01,2.586,0.015C3.25,19.371,3.909,19.375,4.567,19.379z"/>
		<path fill="#16D5F1" d="M48.972,33.765c-0.818,0.327-1.671,0.437-2.547,0.401c0-1.7,0-3.401,0-5.101
			c0.819-0.011,1.638-0.023,2.457-0.034c0,1.444-0.001,2.888,0.003,4.332C48.885,33.499,48.829,33.656,48.972,33.765z"/>
		<path fill="#20C2E9" d="M18.88,34.166c0-1.627,0-3.254,0-4.881c0.146,0.048,0.223,0.178,0.322,0.278
			c1.435,1.444,2.868,2.891,4.3,4.337c0.067,0.068,0.129,0.14,0.188,0.204c-0.017,0.076-0.065,0.077-0.113,0.077
			c-1.53,0-3.06,0-4.59-0.001C18.952,34.181,18.916,34.171,18.88,34.166z"/>
		<path fill="#1ACBED" d="M46.425,29.065c0,1.7,0,3.401,0,5.101c-0.819,0.028-1.639,0.027-2.458,0
			c-0.002-1.251-0.004-2.501-0.006-3.752c0.378-0.436,0.802-0.826,1.203-1.239c0.082-0.084,0.172-0.118,0.288-0.116
			C45.777,29.065,46.101,29.063,46.425,29.065z"/>
		<path fill="#0FE0F5" d="M48.972,33.765c-0.142-0.109-0.086-0.266-0.087-0.403c-0.004-1.444-0.003-2.888-0.003-4.332
			c0.306-0.057,0.616-0.031,0.925-0.035c0.535-0.006,1.071-0.001,1.607,0c0,1.196,0,2.393,0,3.589
			c-0.534,0.375-1.115,0.664-1.716,0.912C49.459,33.594,49.214,33.676,48.972,33.765z"/>
		<path fill="#0BE8F7" d="M12.808,28.998c0,0.985,0,1.97,0.001,2.956c0,0.24-0.013,0.475-0.183,0.668
			c-0.532-0.266-0.984-0.644-1.44-1.016c-0.863-0.704-1.605-1.522-2.251-2.428c-0.041-0.058-0.092-0.113-0.098-0.187
			c0.017-0.058,0.061-0.069,0.111-0.068C10.235,28.948,11.521,28.973,12.808,28.998z"/>
		<path fill="#09EEFA" d="M51.413,32.584c0-1.196,0-2.393,0-3.589c1.211-0.024,2.422-0.049,3.633-0.072
			c0.032-0.001,0.073-0.007,0.11,0.084C54.178,30.457,52.923,31.652,51.413,32.584z"/>
		<path fill="#20C2E9" d="M43.961,30.414c0.002,1.251,0.004,2.501,0.006,3.752c-0.794,0.005-1.588,0.012-2.382,0.016
			c-0.42,0.002-0.841,0-1.25,0c-0.057-0.082-0.012-0.126,0.03-0.169c1.178-1.188,2.356-2.375,3.535-3.562
			C43.917,30.435,43.941,30.427,43.961,30.414z"/>
	</g>
</g>
<g>
	<g>
		<path fill="#ADF8FC" d="M64,19.328c-0.003,0.056,0.002,0.115-0.057,0.149c-0.051-0.092-0.14-0.077-0.221-0.077
			c-0.821,0.003-1.642,0.007-2.463,0.011c-0.649-0.019-1.299-0.019-1.948,0c-0.625,0-1.251,0-1.876,0
			c-0.77-0.02-1.539-0.019-2.309,0c-0.625,0-1.251,0-1.876,0c-0.89-0.019-1.78-0.019-2.67,0c-0.89,0-1.78,0-2.67,0
			c-0.914,0-1.828,0-2.742,0c-0.626-0.005-1.252-0.01-1.878-0.015c0-0.023,0.001-0.046,0.002-0.069
			C50.195,19.328,57.097,19.328,64,19.328z"/>
		<path fill="#ADF7FC" d="M0.05,19.478c-0.057-0.037-0.049-0.095-0.05-0.15c3.728,0,7.456,0,11.184,0c0,0.02,0,0.04,0,0.061
			c-0.481,0.008-0.962,0.016-1.443,0.023c-0.673,0-1.347,0-2.02,0c-0.601,0-1.203,0-1.804,0c-0.553,0-1.106,0-1.66,0
			c-0.601-0.019-1.203-0.02-1.804,0c-0.727-0.004-1.454-0.008-2.182-0.011C0.19,19.4,0.101,19.389,0.05,19.478z"/>
		<path fill="#B1EFF9" d="M11.184,19.389c0-0.02,0-0.04,0-0.061c3.175,0,6.349,0,9.524,0c0,0.024,0,0.049-0.001,0.073
			c-0.048,0.004-0.096,0.007-0.144,0.011c-0.77,0-1.539,0-2.309,0c-0.505,0-1.01,0-1.515,0c-0.722,0-1.443,0-2.165,0
			c-0.794,0-1.587,0-2.381,0C11.857,19.404,11.521,19.396,11.184,19.389z"/>
		<path fill="#29ABE2" d="M34.126,40.248c0.051-0.146,0.157-0.212,0.24-0.294c1.109-1.084,2.219-2.167,3.331-3.248
			c0.246-0.239,0.185-0.282,0.504,0.003c2.243,2.001,4.524,3.957,6.954,5.731c1.03,0.752,2.084,1.466,3.205,2.076
			c0.05,0.027,0.096,0.06,0.135,0.121c-2.571,0.057-5.089-0.274-7.551-0.998C38.472,42.913,36.149,41.875,34.126,40.248z"/>
		<path fill="#18CDEE" d="M35.196,35.56c-0.617,0.634-1.284,1.215-1.939,1.808c-0.301,0.272-0.584,0.565-0.921,0.796
			c-0.027,0.024-0.055,0.048-0.082,0.073c0,0,0.002-0.001,0.002-0.001c-0.202-0.098-0.145-0.285-0.146-0.445
			c-0.002-2.104-0.001-4.208-0.002-6.312c0-0.302-0.045-0.613,0.209-0.852c0.627-0.627,1.252-1.256,1.884-1.878
			c0.213-0.209,0.405-0.442,0.649-0.618c0.088,0.141,0.073,0.299,0.073,0.454c0,2.181,0,4.362,0,6.544c0,0.084,0.002,0.168,0,0.252
			C34.917,35.586,35.018,35.63,35.196,35.56z"/>
		<path fill="#11DCF3" d="M43.29,19.397c0.626,0.005,1.252,0.01,1.878,0.015c0,2.187,0,4.374,0,6.561c0,0.449,0,0.449,0.424,0.542
			c-0.359,0.006-0.719,0.022-1.078,0.013c-0.186-0.005-0.313,0.058-0.437,0.191c-0.244,0.263-0.477,0.538-0.753,0.77
			c-0.146,0.033-0.227,0.125-0.253,0.27c0,0-0.007,0.008-0.007,0.008c-0.021,0.021-0.042,0.043-0.063,0.064
			c0,0-0.008,0.008-0.008,0.008c-0.021,0.022-0.043,0.045-0.064,0.067c0,0-0.005,0.006-0.005,0.006
			c-0.022,0.023-0.044,0.046-0.066,0.07c0,0-0.003,0.003-0.003,0.003c-0.023,0.023-0.046,0.046-0.069,0.069
			c0,0-0.003,0.003-0.003,0.003c-0.023,0.024-0.045,0.048-0.068,0.072c0,0-0.001,0.001-0.001,0.001
			c-0.23-0.066-0.215-0.255-0.215-0.434c-0.001-0.779,0-1.558,0-2.337c0-1.474,0.004-2.949-0.005-4.423
			c-0.001-0.223,0.103-0.446,0.005-0.669C42.762,19.977,43.026,19.687,43.29,19.397z"/>
		<path fill="#0FE1F5" d="M45.592,26.515c-0.424-0.093-0.424-0.093-0.424-0.542c0-2.187,0-4.374,0-6.561c0.914,0,1.828,0,2.742,0
			c0,2.223,0,4.445,0,6.668c0,0.389,0.002,0.391,0.399,0.391c0.757,0,1.514-0.002,2.271-0.004c0.89,0,1.78,0,2.67,0
			c0.15,0.005,0.301,0.009,0.451,0.014c-0.135,0.069-0.282,0.05-0.423,0.05c-2.491,0.002-4.981,0.001-7.472,0
			C45.735,26.531,45.663,26.521,45.592,26.515z"/>
		<path fill="#1BC8EC" d="M32.317,30.626c-0.254,0.239-0.209,0.55-0.209,0.852c0.001,2.104,0,4.208,0.002,6.312
			c0,0.16-0.056,0.347,0.146,0.445c-0.519,0.519-1.098,0.969-1.661,1.436c-0.249,0.206-0.487,0.428-0.771,0.588
			c-0.045,0.006-0.076,0.03-0.094,0.072c0,0,0.004-0.004,0.004-0.004c-0.027,0.022-0.053,0.044-0.08,0.066
			c0,0-0.003,0.002-0.003,0.002c-0.062,0.005-0.116,0.021-0.134,0.09c0,0,0.004,0.002,0.004,0.002
			c-0.128-0.116-0.081-0.269-0.081-0.408c-0.003-2.007-0.003-4.014,0-6.021c0-0.206-0.017-0.406-0.079-0.602
			c0.572-0.614,1.209-1.161,1.808-1.747C31.545,31.342,31.9,30.951,32.317,30.626z"/>
		<path fill="#17D1EF" d="M35.196,35.56c-0.178,0.07-0.279,0.026-0.274-0.182c0.002-0.084,0-0.168,0-0.252c0-2.181,0-4.362,0-6.544
			c0-0.155,0.015-0.313-0.073-0.454c0.557-0.625,1.177-1.189,1.757-1.792c0.223-0.232,0.461-0.45,0.692-0.674
			c0.067,0.207,0.079,0.419,0.079,0.636c-0.003,2.193-0.002,4.386-0.002,6.579c0,0.096,0.002,0.192,0.002,0.288
			c0,0.102,0.059,0.15,0.152,0.169c-0.426,0.458-0.871,0.896-1.352,1.297c-0.047,0.006-0.08,0.031-0.095,0.078
			c0,0,0.008-0.007,0.008-0.007c-0.043,0.01-0.069,0.036-0.079,0.079c0,0,0.007-0.007,0.007-0.007
			c-0.042,0.01-0.069,0.035-0.08,0.077c0,0,0.006-0.006,0.006-0.006c-0.041,0.011-0.067,0.036-0.079,0.077
			c0,0,0.006-0.006,0.006-0.006c-0.04,0.011-0.066,0.037-0.078,0.077c0,0,0.005-0.005,0.005-0.005
			c-0.026,0.025-0.052,0.05-0.079,0.075c0,0,0.004-0.004,0.004-0.004c-0.026,0.025-0.051,0.05-0.077,0.075
			c0,0,0.003-0.003,0.003-0.003c-0.025,0.024-0.051,0.048-0.076,0.072c0,0,0.001-0.001,0.001-0.001
			c-0.025,0.024-0.049,0.048-0.074,0.072c0,0,0,0,0,0c-0.024,0.023-0.049,0.046-0.073,0.069c0,0-0.003,0.002-0.002,0.002
			c-0.023,0.023-0.047,0.045-0.07,0.068c0,0-0.004,0.004-0.004,0.004c-0.023,0.022-0.046,0.043-0.069,0.065
			c0,0-0.007,0.007-0.007,0.007c-0.022,0.021-0.044,0.042-0.065,0.063C35.208,35.55,35.196,35.56,35.196,35.56z"/>
		<path fill="#11DCF2" d="M11.184,19.389c0.337,0.008,0.673,0.015,1.01,0.023c0,2.352,0,4.704,0,7.056
			c-0.632,0.004-1.264,0.008-1.896,0.012c-0.219,0.003-0.439,0.02-0.648-0.067c0.143-0.108,0.089-0.265,0.089-0.401
			c0.003-2.2,0.002-4.399,0.002-6.599C10.222,19.404,10.703,19.396,11.184,19.389z"/>
		<path fill="#1AC9EC" d="M10.297,26.479c0.632-0.004,1.264-0.008,1.896-0.012c0.794,0,1.587,0,2.381,0c0.722,0,1.443,0,2.165,0
			c0.396,0.001,0.793,0.005,1.189,0.003c0.32-0.002,0.32-0.005,0.326-0.319c0.001-0.06,0-0.12,0-0.18c0-2.186,0-4.373,0-6.559
			c0.77,0,1.539,0,2.309,0c-0.093,0.315-0.072,0.639-0.072,0.961c0,2.145,0.001,4.29-0.002,6.434c0,0.138,0.046,0.292-0.082,0.406
			c0,0,0.004-0.005,0.004-0.005c-0.008-0.044-0.034-0.071-0.077-0.081c0,0,0.008,0.007,0.008,0.007
			c-0.013-0.045-0.043-0.07-0.088-0.079c-0.037-0.03-0.084-0.054-0.109-0.092c-0.246-0.367-0.585-0.444-1.018-0.441
			c-2.741,0.021-5.483,0.012-8.225,0.01C10.7,26.532,10.493,26.562,10.297,26.479z"/>
		<path fill="#1DC4EA" d="M20.407,27.213c0.128-0.115,0.082-0.268,0.082-0.406c0.003-2.145,0.002-4.29,0.002-6.434
			c0-0.322-0.021-0.646,0.072-0.961c0.048-0.004,0.096-0.007,0.144-0.011c0.549,0.583,1.098,1.165,1.645,1.749
			c0.081,0.086,0.155,0.18,0.232,0.27c-0.068,0.195-0.074,0.397-0.074,0.601c0.002,2.242,0.001,4.483,0.001,6.725
			c0,0.084-0.005,0.168,0.001,0.252c0.016,0.217-0.107,0.197-0.248,0.151C21.623,28.525,20.986,27.896,20.407,27.213z"/>
		<path fill="#13D8F2" d="M42.498,20.267c0.098,0.223-0.006,0.446-0.005,0.669c0.009,1.474,0.005,2.949,0.005,4.423
			c0,0.779-0.001,1.558,0,2.337c0,0.179-0.015,0.368,0.215,0.434c-0.441,0.512-0.919,0.988-1.41,1.451
			c-0.265,0.152-0.485,0.348-0.614,0.632c0,0-0.004,0.004-0.004,0.004c-0.169-0.081-0.135-0.237-0.135-0.377
			c-0.002-0.66,0.011-1.32-0.003-1.979c-0.037-1.82,0.095-3.642-0.08-5.459c0.187-0.267,0.43-0.484,0.657-0.714
			C41.588,21.219,42.01,20.711,42.498,20.267z"/>
		<path fill="#20BDE7" d="M26.016,32.904c-0.347-0.259-0.628-0.588-0.936-0.888c-0.333-0.326-0.68-0.639-0.977-1
			c0.22-0.049,0.137-0.227,0.137-0.353c0.005-2.123,0.003-4.246,0.004-6.368c0-0.358-0.02-0.718,0.072-1.07
			c0.562,0.505,1.051,1.083,1.589,1.612c0.127,0.125,0.243,0.263,0.364,0.395c-0.062,0.195-0.08,0.394-0.08,0.6
			c0.003,2.144,0.002,4.287,0.003,6.431c0,0.119-0.015,0.247,0.021,0.356C26.279,32.819,26.187,32.881,26.016,32.904z"/>
		<path fill="#1DC4EB" d="M29.361,33.456c0.063,0.196,0.08,0.396,0.079,0.602c-0.003,2.007-0.003,4.014,0,6.021
			c0,0.139-0.047,0.292,0.081,0.408c-0.603,0.505-1.252,0.938-1.961,1.28c-0.059,0.003-0.112,0.016-0.141,0.076
			c0,0,0.002-0.001,0.002-0.001c-0.076-0.014-0.138-0.046-0.142-0.134c-0.004-0.108-0.005-0.216-0.005-0.324
			c-0.002-1.994-0.004-3.988-0.007-5.982C27.947,34.733,28.641,34.081,29.361,33.456z"/>
		<path fill="#08EFFA" d="M55.125,19.412c0.77-0.019,1.539-0.02,2.309,0c0,1.833-0.001,3.666,0.002,5.499
			c0,0.137-0.055,0.29,0.071,0.408c-0.679,0.375-1.381,0.695-2.141,0.873c-0.291-0.028-0.241-0.249-0.241-0.435
			C55.125,23.641,55.125,21.527,55.125,19.412z"/>
		<path fill="#1FC1E8" d="M24.316,23.224c-0.092,0.352-0.072,0.711-0.072,1.07c0,2.123,0.001,4.246-0.004,6.368
			c0,0.125,0.083,0.304-0.137,0.353c0,0-0.003-0.003-0.003-0.003c-0.023-0.023-0.046-0.046-0.069-0.069c0,0-0.003-0.003-0.003-0.003
			c-0.023-0.023-0.046-0.046-0.069-0.069c0,0-0.003-0.003-0.003-0.003c-0.023-0.023-0.046-0.046-0.069-0.069
			c0,0-0.003-0.003-0.003-0.003c-0.023-0.023-0.046-0.046-0.069-0.069c0,0-0.003-0.003-0.003-0.003
			c-0.023-0.023-0.046-0.046-0.069-0.069c-0.521-0.474-1.019-0.972-1.479-1.507c0.141,0.046,0.264,0.066,0.248-0.151
			c-0.006-0.083-0.001-0.168-0.001-0.252c0-2.242,0.001-4.483-0.001-6.725c0-0.204,0.005-0.406,0.074-0.601
			C23.187,21.997,23.755,22.607,24.316,23.224z"/>
		<path fill="#0EE0F4" d="M9.741,19.412c0,2.2,0.001,4.399-0.002,6.599c0,0.137,0.054,0.293-0.089,0.401
			c-0.042-0.006-0.084-0.012-0.126-0.018c-0.086-0.103-0.201-0.059-0.307-0.061c-0.578-0.069-1.119-0.254-1.638-0.513
			c0.221-0.047,0.139-0.226,0.139-0.352c0.005-2.019,0.003-4.038,0.003-6.057C8.394,19.412,9.067,19.412,9.741,19.412z"/>
		<path fill="#14D6F1" d="M40.468,22.402c0.175,1.818,0.043,3.64,0.08,5.459c0.013,0.659,0.001,1.319,0.003,1.979
			c0,0.14-0.034,0.296,0.135,0.377c-0.336,0.388-0.699,0.749-1.085,1.086c-0.021,0.021-0.043,0.043-0.064,0.064
			c0,0-0.008,0.008-0.008,0.008c-0.021,0.021-0.043,0.043-0.064,0.064c0,0-0.008,0.008-0.008,0.008
			c-0.021,0.021-0.043,0.043-0.064,0.064c0,0-0.008,0.008-0.008,0.008c-0.022,0.022-0.043,0.043-0.065,0.065
			c0,0-0.008,0.008-0.008,0.008c-0.022,0.022-0.043,0.043-0.065,0.065c0,0-0.008,0.008-0.008,0.008
			c-0.022,0.022-0.043,0.043-0.065,0.065c0,0-0.008,0.008-0.008,0.008c-0.022,0.022-0.043,0.043-0.065,0.065
			c0,0-0.008,0.008-0.008,0.008c-0.022,0.021-0.043,0.042-0.065,0.063c0,0-0.008,0.007-0.008,0.007
			c-0.217-0.054-0.129-0.232-0.13-0.356c-0.006-2.241-0.004-4.482-0.005-6.723c0-0.119,0.022-0.252-0.022-0.355
			c-0.066-0.154-0.003-0.28,0.026-0.416C39.395,23.464,39.925,22.926,40.468,22.402z"/>
		<path fill="#09ECF9" d="M55.125,19.412c0,2.115,0,4.23,0.001,6.344c0,0.187-0.049,0.407,0.241,0.435
			c-0.324,0.129-0.658,0.213-1.009,0.216c-0.13,0.006-0.27-0.055-0.385,0.056c-0.089,0.025-0.18,0.033-0.272,0.017
			c-0.15-0.005-0.301-0.009-0.451-0.014c0-2.352,0-4.703,0-7.055C53.875,19.412,54.5,19.412,55.125,19.412z"/>
		<path fill="#23B8E5" d="M26.016,32.904c0.171-0.023,0.263-0.085,0.197-0.286c-0.036-0.109-0.021-0.237-0.021-0.356
			c-0.001-2.144,0.001-4.287-0.003-6.431c0-0.205,0.017-0.405,0.08-0.6c0.76,0.735,1.509,1.481,2.23,2.254
			c-0.062,0.183-0.074,0.371-0.072,0.563c0.005,0.68,0.005,1.361,0,2.041c-0.001,0.192,0.01,0.38,0.072,0.563
			c-0.327,0.334-0.651,0.671-0.98,1.002c-0.415,0.417-0.835,0.829-1.251,1.246C26.181,32.987,26.103,33.052,26.016,32.904z"/>
		<path fill="#15D4F0" d="M38.894,24.028c-0.029,0.137-0.092,0.262-0.026,0.416c0.044,0.103,0.022,0.236,0.022,0.355
			c0.001,2.241-0.001,4.482,0.005,6.723c0,0.124-0.087,0.302,0.13,0.356c-0.269,0.323-0.581,0.603-0.898,0.879
			c-0.048,0.006-0.081,0.031-0.095,0.079c0,0,0.008-0.007,0.008-0.007c-0.044,0.009-0.07,0.035-0.081,0.078
			c0,0,0.007-0.007,0.007-0.007c-0.043,0.01-0.069,0.036-0.079,0.079c0,0,0.007-0.007,0.007-0.007
			c-0.043,0.01-0.069,0.036-0.079,0.079c0,0,0.007-0.007,0.007-0.007c-0.043,0.01-0.069,0.036-0.079,0.079
			c0,0,0.007-0.007,0.007-0.007c-0.042,0.01-0.069,0.035-0.08,0.076c0,0,0.006-0.006,0.006-0.006
			c-0.041,0.011-0.067,0.037-0.078,0.078c0,0,0.006-0.006,0.006-0.006c-0.041,0.011-0.066,0.037-0.078,0.078
			c0,0,0.005-0.001,0.005-0.001c-0.092-0.019-0.151-0.067-0.152-0.169c0-0.096-0.002-0.192-0.002-0.288
			c0-2.193-0.001-4.386,0.002-6.579c0-0.217-0.012-0.429-0.079-0.636C37.812,25.1,38.347,24.558,38.894,24.028z"/>
		<path fill="#20BDE8" d="M21.862,43.933l-0.021,0.014c0,0-0.024-0.006-0.025-0.006c-0.219,0.012-0.246-0.119-0.245-0.3
			c0.006-0.889,0.001-1.779,0.004-2.669c0.001-0.193-0.004-0.383-0.071-0.567c0.889-0.747,1.779-1.494,2.668-2.241
			c0.094,0.352,0.071,0.713,0.071,1.071c0.001,1.201-0.001,2.402,0.002,3.603c0,0.126-0.048,0.267,0.07,0.374
			c-0.714,0.293-1.449,0.514-2.207,0.658C22.02,43.864,21.926,43.84,21.862,43.933z"/>
		<path fill="#0DE4F6" d="M7.72,19.412c0,2.019,0.001,4.038-0.003,6.057c0,0.126,0.081,0.305-0.139,0.352c0,0-0.001,0-0.001,0
			c-0.034-0.059-0.089-0.07-0.151-0.067c0,0,0.005,0.003,0.005,0.003c-0.034-0.072-0.097-0.077-0.165-0.071l-0.029,0
			c0,0-0.023-0.017-0.023-0.017c-0.025-0.037-0.06-0.053-0.104-0.054c-0.507-0.178-0.975-0.43-1.421-0.726
			c0.271,0.014,0.227-0.181,0.227-0.344c0.001-1.711,0-3.421,0-5.132C6.518,19.412,7.119,19.412,7.72,19.412z"/>
		<path fill="#1EC2EA" d="M27.268,35.401c0.002,1.994,0.004,3.988,0.007,5.982c0,0.108,0.001,0.216,0.005,0.324
			c0.003,0.089,0.065,0.12,0.142,0.134c-0.364,0.236-0.749,0.428-1.156,0.576c-0.059,0.001-0.112,0.012-0.145,0.068l-0.017,0.015
			c0,0-0.023-0.004-0.023-0.004c-0.044,0.002-0.079,0.018-0.104,0.055l-0.023,0.017c0,0-0.029,0-0.029,0
			c-0.068-0.006-0.131-0.001-0.165,0.072c0,0,0.004-0.002,0.004-0.002c-0.074-0.016-0.14-0.044-0.144-0.133
			c-0.005-0.096-0.006-0.192-0.006-0.288c0-1.56-0.005-3.121,0.005-4.681c0.001-0.212-0.101-0.422-0.013-0.635
			C26.141,36.38,26.693,35.877,27.268,35.401z"/>
		<path fill="#06F3FB" d="M57.508,25.318c-0.126-0.118-0.071-0.271-0.071-0.408c-0.004-1.833-0.002-3.666-0.002-5.499
			c0.625,0,1.251,0,1.876,0c0,1.417,0,2.834,0,4.251c0,0.18-0.018,0.364,0.142,0.498c-0.439,0.344-0.907,0.641-1.413,0.875
			c-0.043,0.003-0.076,0.021-0.098,0.058l-0.016,0.017c0,0-0.023-0.002-0.023-0.002c-0.046,0.003-0.083,0.022-0.108,0.062
			c0,0-0.002,0.001-0.002,0.001c-0.059,0.002-0.112,0.016-0.142,0.074c0,0,0.001,0,0.001,0c-0.06,0.001-0.115,0.014-0.145,0.073
			L57.508,25.318z"/>
		<path fill="#23B8E7" d="M21.504,40.405c0.067,0.184,0.071,0.374,0.071,0.567c-0.003,0.89,0.002,1.779-0.004,2.669
			c-0.001,0.181,0.026,0.312,0.245,0.3c-0.45,0.168-0.925,0.229-1.393,0.311c-0.693,0.122-1.387,0.254-2.095,0.268
			c-0.001-0.389-0.012-0.779,0.003-1.167c0.006-0.173-0.115-0.343-0.008-0.516c0.721-0.548,1.443-1.095,2.164-1.645
			C20.828,40.932,21.165,40.667,21.504,40.405z"/>
		<path fill="#0BE8F7" d="M5.916,19.412c0,1.711,0,3.421,0,5.132c0,0.163,0.043,0.358-0.227,0.344
			C5.097,24.59,4.551,24.224,4.043,23.8c0.25-0.076,0.213-0.284,0.213-0.471c0.001-1.306,0.001-2.612,0.001-3.918
			C4.81,19.412,5.363,19.412,5.916,19.412z"/>
		<path fill="#05F5FC" d="M59.452,24.161c-0.16-0.134-0.142-0.318-0.142-0.498c0-1.417,0-2.834,0-4.251
			c0.649-0.019,1.299-0.02,1.948,0c0,0.916,0,1.831,0,2.747c0,0.158-0.011,0.322,0.212,0.342c-0.46,0.487-0.965,0.921-1.519,1.298
			c-0.06,0.006-0.112,0.023-0.13,0.09c0,0,0.008-0.008,0.008-0.008c-0.041,0.007-0.069,0.031-0.084,0.07
			c0,0,0.003-0.003,0.003-0.003c-0.026,0.021-0.053,0.041-0.079,0.062c0,0-0.007,0.004-0.007,0.004
			c-0.059,0.007-0.11,0.024-0.131,0.087c0,0,0.007-0.006,0.006-0.006c-0.028,0.022-0.055,0.043-0.083,0.065
			C59.454,24.16,59.452,24.161,59.452,24.161z"/>
		<path fill="#1FC0E9" d="M25.607,36.901c-0.089,0.213,0.014,0.423,0.013,0.635c-0.009,1.56-0.005,3.121-0.005,4.681
			c0,0.096,0.001,0.192,0.006,0.288c0.005,0.089,0.07,0.117,0.144,0.133c-0.407,0.219-0.834,0.388-1.28,0.508
			c-0.067-0.006-0.13-0.003-0.169,0.064l0,0c-0.118-0.106-0.07-0.248-0.07-0.374c-0.004-1.201-0.002-2.402-0.002-3.603
			c0-0.358,0.023-0.719-0.071-1.071C24.632,37.722,25.11,37.3,25.607,36.901z"/>
		<path fill="#09ECF8" d="M4.257,19.412c0,1.306,0.001,2.612-0.001,3.918c0,0.187,0.037,0.395-0.213,0.471
			c0,0-0.002-0.001-0.002-0.001c-0.027-0.022-0.054-0.044-0.081-0.066c0,0,0.005,0.005,0.005,0.005
			c-0.014-0.041-0.042-0.065-0.085-0.072c0,0,0.008,0.009,0.008,0.009c-0.016-0.07-0.07-0.086-0.131-0.092
			c0,0-0.004-0.003-0.004-0.003c-0.026-0.021-0.052-0.043-0.078-0.064c0,0,0.003,0.002,0.003,0.002
			c-0.015-0.038-0.042-0.062-0.082-0.071c0,0,0.006,0.006,0.006,0.006c-0.012-0.042-0.04-0.067-0.084-0.074
			c0,0,0.008,0.009,0.008,0.009c-0.014-0.069-0.066-0.087-0.126-0.093c-0.399-0.298-0.769-0.627-1.094-1.006
			c0.15-0.121,0.147-0.29,0.146-0.46c-0.001-0.805-0.001-1.61-0.001-2.415C3.054,19.392,3.656,19.393,4.257,19.412z"/>
		<path fill="#19CCED" d="M17.685,34.171c-0.321,0.016-0.643,0.049-0.96-0.045c0.048-0.002,0.096-0.005,0.144-0.006
			c0.373-0.008,0.375-0.008,0.375-0.377c0.001-1.426-0.004-2.851,0.006-4.277c0.001-0.194-0.054-0.314-0.221-0.393
			c0.217-0.014,0.435-0.022,0.652,0.006c0.175,0.118,0.372,0.051,0.558,0.057c0.168,0.006,0.243,0.069,0.232,0.236
			c-0.005,0.084,0,0.168,0,0.251c0,1.497,0,2.995,0,4.492C18.21,34.148,17.941,34.061,17.685,34.171z"/>
		<path fill="#14D6F1" d="M48.493,33.906c-0.415,0.148-0.84,0.233-1.283,0.221c-0.056-0.005-0.111-0.01-0.166-0.014
			c0-1.68,0-3.36,0-5.04c0.406-0.024,0.812-0.031,1.218-0.014c0.003,1.425,0.005,2.85,0.008,4.275c0,0.096-0.007,0.193,0.004,0.287
			C48.292,33.754,48.326,33.883,48.493,33.906z"/>
		<path fill="#17D0EF" d="M47.044,29.073c0,1.68,0,3.36,0,5.04c-0.288,0.002-0.576,0.007-0.864,0.006
			c-0.359-0.001-0.362-0.003-0.363-0.354c-0.001-1.416-0.001-2.832,0-4.248c0-0.346,0.002-0.347,0.34-0.376
			c0.062-0.005,0.118-0.015,0.162-0.062C46.561,29.053,46.802,29.057,47.044,29.073z"/>
		<path fill="#16D1EE" d="M17.03,29.074c0.166,0.079,0.222,0.199,0.221,0.393c-0.01,1.425-0.005,2.851-0.006,4.277
			c0,0.369-0.002,0.368-0.375,0.377c-0.048,0.001-0.096,0.004-0.144,0.006c-0.321,0.009-0.635-0.031-0.937-0.145
			c0.297-0.038,0.301-0.038,0.301-0.347c0.001-1.522,0.001-3.045,0.001-4.567C16.404,29.041,16.717,29.053,17.03,29.074z"/>
		<path fill="#1ACAED" d="M46.319,29.079c-0.044,0.047-0.1,0.057-0.162,0.062c-0.338,0.028-0.339,0.029-0.34,0.376
			c-0.001,1.416-0.001,2.832,0,4.248c0,0.351,0.003,0.353,0.363,0.354c0.288,0.001,0.576-0.004,0.864-0.006
			c0.055,0.005,0.111,0.01,0.166,0.014c-0.214,0.093-0.442,0.054-0.663,0.057c-0.318,0.005-0.636-0.008-0.955-0.013
			c-0.305-0.11-0.621-0.02-0.93-0.053c0-1.237-0.002-2.474,0.002-3.711c0.001-0.218-0.014-0.43-0.082-0.637
			c0.005-0.011,0.008-0.023,0.016-0.032C45.236,29.029,45.236,29.029,46.319,29.079z"/>
		<path fill="#11DCF3" d="M48.493,33.906c-0.167-0.023-0.202-0.152-0.218-0.286c-0.012-0.094-0.004-0.191-0.004-0.287
			c-0.003-1.425-0.005-2.85-0.008-4.275c0,0,0.001,0.006,0.001,0.006c0.411,0.003,0.823,0.006,1.234,0.01
			c0,1.326-0.001,2.653,0,3.979c0,0.164-0.038,0.345,0.167,0.431C49.296,33.686,48.908,33.832,48.493,33.906z"/>
		<path fill="#14D6F0" d="M16.09,29.066c0,1.522,0.001,3.045-0.001,4.567c0,0.308-0.003,0.308-0.301,0.347
			c-0.333-0.034-0.648-0.13-0.946-0.28c0.097-0.061,0.093-0.159,0.093-0.255c0-0.228,0-0.455,0-0.683c0-1.102,0.001-2.204,0-3.306
			c0-0.386-0.002-0.387-0.4-0.388c-0.275-0.001-0.551,0.001-0.826,0.002c-0.168-0.001-0.336-0.003-0.505-0.004
			c0-0.018,0-0.036,0-0.054C14.167,28.989,15.129,29.015,16.09,29.066z"/>
		<path fill="#1CC6EB" d="M18.471,34.117c0-1.497,0-2.995,0-4.492c0-0.084-0.005-0.168,0-0.251c0.01-0.168-0.064-0.23-0.232-0.236
			c-0.186-0.007-0.383,0.061-0.558-0.057c1.018-0.052,1.019-0.053,1.704,0.659c0.107,0.111,0.235,0.204,0.31,0.344
			c-0.088,0.141-0.07,0.298-0.07,0.453c0,1.194,0,2.388,0,3.582C19.241,34.117,18.856,34.117,18.471,34.117z"/>
		<path fill="#11DBF2" d="M13.709,29.071c0.275-0.001,0.551-0.003,0.826-0.002c0.398,0.001,0.4,0.002,0.4,0.388
			c0.001,1.102,0,2.204,0,3.306c0,0.228,0,0.455,0,0.683c0,0.096,0.004,0.194-0.093,0.255c-0.021,0.005-0.039-0.001-0.052-0.018
			c-0.036-0.059-0.093-0.067-0.155-0.064c-0.39-0.112-0.753-0.284-1.096-0.498c0.214-0.033,0.169-0.2,0.169-0.337
			C13.71,31.547,13.709,30.309,13.709,29.071z"/>
		<path fill="#0EE2F5" d="M49.664,33.483c-0.205-0.086-0.166-0.267-0.167-0.431c-0.001-1.326,0-2.653,0-3.979
			c0.385-0.003,0.769-0.005,1.154-0.007c0.024,0.002,0.048,0.003,0.073,0.005c0,0.334,0,0.667,0,1.001
			c0,0.834-0.002,1.668,0.002,2.503c0.001,0.117-0.064,0.277,0.135,0.317C50.49,33.143,50.089,33.338,49.664,33.483z"/>
		<path fill="#1DC4EB" d="M44.583,29.77c0.069,0.207,0.083,0.419,0.082,0.637c-0.005,1.237-0.002,2.474-0.002,3.711
			c-0.433,0-0.866,0-1.299,0c-0.001-1.036-0.002-2.072-0.003-3.108C43.74,30.568,44.16,30.167,44.583,29.77z"/>
		<path fill="#03F9FD" d="M61.47,22.501c-0.223-0.02-0.212-0.184-0.212-0.342c0-0.916,0-1.831,0-2.747
			c0.821-0.004,1.642-0.008,2.463-0.011c0.081,0,0.17-0.015,0.221,0.077c-0.457,0.713-0.953,1.396-1.511,2.033
			c-0.086,0.098-0.182,0.187-0.273,0.28c-0.118,0.013-0.17,0.088-0.183,0.198c0,0-0.007,0.007-0.007,0.007
			c-0.021,0.022-0.042,0.043-0.064,0.065c0,0-0.007,0.007-0.007,0.007c-0.021,0.023-0.043,0.046-0.064,0.069
			c0,0-0.004,0.004-0.004,0.004c-0.023,0.023-0.045,0.046-0.068,0.07c0,0-0.003,0.003-0.003,0.003
			c-0.023,0.023-0.046,0.046-0.069,0.069c0,0-0.003,0.003-0.003,0.003c-0.023,0.023-0.046,0.046-0.069,0.069
			c0,0-0.003,0.003-0.003,0.003c-0.023,0.023-0.046,0.046-0.069,0.069c0,0-0.003,0.003-0.003,0.003
			c-0.023,0.023-0.046,0.046-0.069,0.069C61.473,22.498,61.47,22.501,61.47,22.501z"/>
		<path fill="#0FE0F4" d="M13.709,29.071c0,1.238,0.001,2.475-0.001,3.713c0,0.137,0.046,0.304-0.169,0.337
			c-0.407-0.169-0.782-0.393-1.133-0.658c0.176-0.025,0.147-0.161,0.148-0.278c0.001-0.625,0.001-1.25,0.001-1.875
			c0-0.337-0.006-0.673,0.002-1.01c0.004-0.172-0.069-0.235-0.236-0.234c-0.115,0.001-0.243,0.041-0.341-0.063
			c0.217-0.017,0.435-0.025,0.652,0.006c0.181,0.119,0.383,0.033,0.573,0.058C13.372,29.069,13.541,29.07,13.709,29.071z"/>
		<path fill="#0BE8F7" d="M50.861,32.891c-0.199-0.039-0.134-0.199-0.135-0.317c-0.005-0.834-0.003-1.668-0.002-2.503
			c0-0.334,0-0.667,0-1.001c0.214-0.031,0.44,0.059,0.646-0.062c0.217-0.029,0.434-0.021,0.652-0.006
			c-0.035,0.076-0.071,0.15-0.071,0.238c0.001,0.884,0.001,1.769,0,2.653c0,0.105,0.019,0.191,0.144,0.206
			C51.716,32.414,51.306,32.679,50.861,32.891z"/>
		<path fill="#1EC2E9" d="M19.626,34.117c0-1.194,0-2.388,0-3.582c0-0.154-0.018-0.312,0.07-0.453
			c0.39,0.334,0.742,0.705,1.081,1.089c0.001,0.982,0.002,1.964,0.003,2.946C20.395,34.117,20.011,34.117,19.626,34.117z"/>
		<path fill="#07F0FA" d="M2.453,19.412c0,0.805-0.001,1.61,0.001,2.415c0,0.17,0.003,0.339-0.146,0.46
			c-0.667-0.604-1.212-1.312-1.737-2.037c-0.182-0.251-0.348-0.514-0.521-0.771C0.101,19.389,0.19,19.4,0.272,19.4
			C0.999,19.403,1.726,19.408,2.453,19.412z"/>
		<path fill="#0CE5F6" d="M11.979,29.003c0.098,0.104,0.226,0.064,0.341,0.063c0.167-0.002,0.24,0.061,0.236,0.234
			c-0.007,0.336-0.002,0.673-0.002,1.01c0,0.625,0.001,1.25-0.001,1.875c0,0.117,0.028,0.253-0.148,0.278
			c0,0,0.003,0.001,0.003,0.001c-0.021-0.043-0.056-0.064-0.103-0.068c-0.388-0.216-0.74-0.481-1.06-0.789
			c0.178-0.088,0.154-0.253,0.154-0.408c0-0.733,0-1.466,0-2.199C11.593,28.979,11.786,28.975,11.979,29.003z"/>
		<path fill="#20BEE8" d="M43.361,31.009c0.001,1.036,0.002,2.072,0.003,3.108c-0.322,0.001-0.645-0.004-0.967,0.004
			c-0.174,0.004-0.264-0.046-0.262-0.241c0.003-0.523,0.027-1.047-0.071-1.566c0,0-0.001,0.001-0.001,0.001
			c0.024-0.025,0.049-0.049,0.073-0.074C42.525,31.811,42.925,31.392,43.361,31.009z"/>
		<path fill="#21BCE7" d="M20.78,34.117c-0.001-0.982-0.002-1.964-0.003-2.946c0.484,0.447,0.957,0.903,1.384,1.405
			c-0.067,0.205-0.093,0.414-0.084,0.631c0.009,0.214,0.006,0.428,0.001,0.642c-0.006,0.252-0.015,0.264-0.263,0.268
			C21.47,34.123,21.125,34.118,20.78,34.117z"/>
		<path fill="#08EEF9" d="M52.095,32.099c-0.126-0.014-0.145-0.1-0.144-0.206c0.001-0.884,0.001-1.769,0-2.653
			c0-0.088,0.036-0.162,0.071-0.238c0.337-0.021,0.674-0.037,1.011-0.008c0,0.095,0,0.19,0,0.284c0,0.545,0.002,1.09-0.001,1.635
			c-0.001,0.149,0.022,0.263,0.208,0.246C52.896,31.519,52.515,31.833,52.095,32.099z"/>
		<path fill="#26B4E4" d="M28.499,30.652c-0.062-0.183-0.074-0.371-0.072-0.563c0.005-0.68,0.005-1.361,0-2.041
			c-0.001-0.192,0.01-0.38,0.072-0.563c0.524,0.456,0.985,0.976,1.49,1.451c0.102,0.096,0.102,0.17,0,0.265
			C29.485,29.677,29.023,30.196,28.499,30.652z"/>
		<path fill="#07F3FB" d="M53.24,31.159c-0.187,0.017-0.209-0.096-0.208-0.246c0.004-0.545,0.001-1.09,0.001-1.635
			c0-0.095,0-0.19,0-0.284c0.681-0.074,1.364-0.043,2.052-0.059C54.966,29.355,53.893,30.641,53.24,31.159z"/>
		<path fill="#0AEBF8" d="M11.4,29c0,0.733,0,1.466,0,2.199c0,0.155,0.025,0.32-0.154,0.408c0,0,0.005-0.001,0.005-0.001
			c-0.017-0.046-0.05-0.07-0.098-0.075c-0.371-0.266-0.695-0.58-0.986-0.931c0.002-0.361,0.005-0.721,0.005-1.082
			c0-0.631-0.022-0.499,0.522-0.526C10.93,28.973,11.166,28.963,11.4,29z"/>
		<path fill="#26B4E5" d="M18.323,42.836c-0.107,0.173,0.015,0.342,0.008,0.516c-0.015,0.389-0.003,0.778-0.003,1.167
			c-0.287,0.109-0.592,0.062-0.888,0.095c-0.643,0.07-1.29,0.051-1.934,0.058c-0.015-0.104,0.057-0.117,0.103-0.142
			c0.874-0.479,1.711-1.017,2.526-1.589C18.194,42.899,18.261,42.871,18.323,42.836z"/>
		<path fill="#24B8E6" d="M42.065,32.314c0.097,0.518,0.074,1.043,0.071,1.566c-0.001,0.195,0.088,0.245,0.262,0.241
			c0.322-0.008,0.644-0.003,0.967-0.004c0.433,0,0.866,0,1.299,0c0.309,0.033,0.625-0.057,0.93,0.053
			c-0.24,0.006-0.48,0.016-0.719,0.016c-1.406,0.001-2.811,0-4.217,0c-0.118,0-0.236,0-0.363,0
			C40.391,33.951,41.494,32.793,42.065,32.314z"/>
		<path fill="#25B8E5" d="M20.78,34.117c0.345,0.001,0.69,0.006,1.035,0c0.247-0.004,0.256-0.016,0.263-0.268
			c0.005-0.214,0.008-0.429-0.001-0.642c-0.009-0.217,0.017-0.426,0.084-0.631c0.546,0.484,1.026,1.034,1.545,1.527
			c-0.042,0.105-0.109,0.083-0.164,0.083c-1.893,0.001-3.786,0.001-5.68,0.001c-0.059,0-0.119-0.01-0.178-0.016
			c0.256-0.11,0.525-0.022,0.786-0.053c0.385,0,0.77,0,1.154,0C20.011,34.117,20.395,34.117,20.78,34.117z"/>
		<path fill="#0AF0FA" d="M10.695,28.991c-0.544,0.028-0.522-0.104-0.522,0.526c0,0.361-0.003,0.721-0.005,1.082
			c-0.437-0.386-1.127-1.258-1.298-1.665C9.492,28.95,10.094,28.916,10.695,28.991z"/>
		<path fill="#14D6F1" d="M50.651,29.066c-0.385,0.002-0.769,0.005-1.154,0.007c-0.411-0.003-0.822-0.006-1.234-0.01
			c0.328-0.08,0.662-0.041,0.993-0.047c0.464-0.009,0.929-0.035,1.394,0.001C50.651,29.034,50.652,29.05,50.651,29.066z"/>
		<path fill="#14D6F1" d="M40.69,30.213c0.129-0.284,0.349-0.48,0.614-0.632C41.134,29.825,40.914,30.022,40.69,30.213z"/>
		<path fill="#11DCF3" d="M50.651,29.066c0-0.016,0-0.032,0-0.049c0.239-0.036,0.479-0.026,0.718-0.009
			c-0.205,0.121-0.431,0.031-0.646,0.062C50.7,29.069,50.676,29.068,50.651,29.066z"/>
		<path fill="#11DBF2" d="M13.204,29.067c-0.191-0.025-0.392,0.061-0.573-0.058c0.191-0.02,0.382-0.024,0.573,0.003
			C13.204,29.031,13.204,29.049,13.204,29.067z"/>
		<path fill="#13D8F2" d="M43.071,27.759c0.025-0.145,0.107-0.237,0.253-0.27C43.265,27.603,43.181,27.693,43.071,27.759z"/>
		<path fill="#0BE9F7" d="M53.973,26.463c0.115-0.111,0.255-0.05,0.385-0.056C54.238,26.484,54.105,26.471,53.973,26.463z"/>
		<path fill="#11DCF2" d="M9.216,26.334c0.106,0.002,0.221-0.042,0.307,0.061C9.415,26.402,9.307,26.407,9.216,26.334z"/>
		<path fill="#05F5FC" d="M61.975,21.988c0.013-0.11,0.064-0.185,0.183-0.198C62.116,21.872,62.064,21.946,61.975,21.988z"/>
		<path fill="#23B8E7" d="M21.862,43.933c0.064-0.093,0.157-0.069,0.247-0.064C22.038,43.936,21.951,43.937,21.862,43.933z"/>
		<path fill="#1EC2EA" d="M27.419,41.843c0.029-0.059,0.082-0.073,0.141-0.076C27.527,41.818,27.479,41.841,27.419,41.843z"/>
		<path fill="#14D6F0" d="M14.635,33.619c0.062-0.003,0.119,0.005,0.155,0.064C14.728,33.687,14.674,33.671,14.635,33.619z"/>
		<path fill="#1FC0E9" d="M26.121,42.486c0.032-0.056,0.086-0.067,0.145-0.068C26.23,42.467,26.18,42.488,26.121,42.486z"/>
		<path fill="#20BDE8" d="M24.316,43.211c0.039-0.067,0.102-0.07,0.169-0.064C24.441,43.201,24.381,43.214,24.316,43.211z"/>
		<path fill="#1FC0E9" d="M25.761,42.641c0.034-0.072,0.097-0.077,0.165-0.072C25.884,42.625,25.825,42.64,25.761,42.641z"/>
		<path fill="#0BE8F7" d="M3.401,23.293c0.06,0.006,0.112,0.024,0.126,0.093C3.469,23.378,3.425,23.349,3.401,23.293z"/>
		<path fill="#0EE0F4" d="M7.425,25.754c0.061-0.003,0.117,0.008,0.151,0.067C7.515,25.822,7.461,25.809,7.425,25.754z"/>
		<path fill="#0EE0F4" d="M7.266,25.685c0.068-0.006,0.13,0,0.165,0.071C7.365,25.756,7.306,25.741,7.266,25.685z"/>
		<path fill="#08EFFA" d="M57.507,25.319c0.03-0.06,0.084-0.073,0.145-0.073C57.618,25.299,57.567,25.318,57.507,25.319z"/>
		<path fill="#08EFFA" d="M57.651,25.246c0.03-0.058,0.083-0.072,0.142-0.074C57.759,25.222,57.711,25.245,57.651,25.246z"/>
		<path fill="#06F3FB" d="M59.53,24.101c0.021-0.064,0.072-0.081,0.131-0.087C59.634,24.067,59.589,24.095,59.53,24.101z"/>
		<path fill="#1DC4EB" d="M29.517,40.485c0.018-0.069,0.072-0.085,0.134-0.09C29.624,40.451,29.577,40.477,29.517,40.485z"/>
		<path fill="#06F3FB" d="M59.821,23.889c0.018-0.067,0.07-0.084,0.13-0.09C59.925,23.853,59.88,23.881,59.821,23.889z"/>
		<path fill="#0BE8F7" d="M3.758,23.582c0.061,0.006,0.115,0.023,0.131,0.092C3.829,23.666,3.784,23.638,3.758,23.582z"/>
		<path fill="#18CDEE" d="M35.426,35.343c0.024-0.023,0.049-0.046,0.073-0.069C35.49,35.313,35.466,35.336,35.426,35.343z"/>
		<path fill="#18CDEE" d="M35.353,35.413c0.023-0.023,0.047-0.045,0.07-0.068C35.416,35.384,35.393,35.407,35.353,35.413z"/>
		<path fill="#15D4F0" d="M39.104,31.8c0.022-0.022,0.043-0.043,0.065-0.065C39.163,31.773,39.141,31.794,39.104,31.8z"/>
		<path fill="#18CDEE" d="M35.28,35.481c0.023-0.022,0.046-0.043,0.069-0.065C35.341,35.454,35.318,35.475,35.28,35.481z"/>
		<path fill="#18CDEE" d="M35.208,35.55c0.022-0.021,0.044-0.042,0.065-0.063C35.266,35.524,35.245,35.546,35.208,35.55z"/>
		<path fill="#15D4F0" d="M39.177,31.728c0.022-0.022,0.043-0.043,0.065-0.065C39.235,31.701,39.213,31.722,39.177,31.728z"/>
		<path fill="#15D4F0" d="M39.249,31.656c0.022-0.022,0.043-0.043,0.065-0.065C39.307,31.628,39.286,31.65,39.249,31.656z"/>
		<path fill="#15D4F0" d="M39.321,31.584c0.022-0.022,0.043-0.043,0.065-0.065C39.379,31.556,39.358,31.578,39.321,31.584z"/>
		<path fill="#0CE5F6" d="M11.154,31.53c0.048,0.005,0.081,0.029,0.098,0.075C11.206,31.598,11.174,31.572,11.154,31.53z"/>
		<path fill="#1BC8EC" d="M32.254,38.236c0.027-0.024,0.055-0.048,0.082-0.073C32.322,38.203,32.295,38.228,32.254,38.236z"/>
		<path fill="#1DC4EB" d="M29.729,40.331c0.018-0.042,0.049-0.065,0.094-0.072C29.804,40.299,29.773,40.323,29.729,40.331z"/>
		<path fill="#1DC4EB" d="M29.654,40.393c0.027-0.022,0.053-0.044,0.08-0.066C29.721,40.366,29.694,40.388,29.654,40.393z"/>
		<path fill="#15D4F0" d="M39.393,31.512c0.021-0.021,0.043-0.043,0.064-0.064C39.451,31.484,39.43,31.506,39.393,31.512z"/>
		<path fill="#1FC0E9" d="M25.977,42.553c0.024-0.037,0.06-0.054,0.104-0.055C26.057,42.535,26.022,42.554,25.977,42.553z"/>
		<path fill="#15D4F0" d="M39.465,31.44c0.021-0.021,0.043-0.043,0.064-0.064C39.524,31.412,39.502,31.433,39.465,31.44z"/>
		<path fill="#15D4F0" d="M39.537,31.367c0.021-0.021,0.043-0.043,0.064-0.064C39.595,31.34,39.574,31.361,39.537,31.367z"/>
		<path fill="#20BDE7" d="M24.031,30.943c0.023,0.023,0.046,0.046,0.069,0.069C24.062,31.005,24.038,30.982,24.031,30.943z"/>
		<path fill="#20BDE7" d="M23.959,30.871c0.023,0.023,0.046,0.046,0.069,0.069C23.989,30.933,23.966,30.91,23.959,30.871z"/>
		<path fill="#20BDE7" d="M23.887,30.799c0.023,0.023,0.046,0.046,0.069,0.069C23.917,30.861,23.894,30.838,23.887,30.799z"/>
		<path fill="#20BDE7" d="M23.815,30.727c0.023,0.023,0.046,0.046,0.069,0.069C23.845,30.789,23.822,30.766,23.815,30.727z"/>
		<path fill="#20BDE7" d="M23.743,30.655c0.023,0.023,0.046,0.046,0.069,0.069C23.773,30.717,23.75,30.694,23.743,30.655z"/>
		<path fill="#13D8F2" d="M42.714,28.129c0.023-0.024,0.045-0.048,0.068-0.072C42.776,28.096,42.753,28.12,42.714,28.129z"/>
		<path fill="#13D8F2" d="M42.786,28.054c0.023-0.023,0.046-0.046,0.069-0.069C42.848,28.024,42.825,28.047,42.786,28.054z"/>
		<path fill="#13D8F2" d="M42.858,27.982c0.022-0.023,0.044-0.046,0.066-0.07C42.919,27.952,42.897,27.975,42.858,27.982z"/>
		<path fill="#17D1EF" d="M37.742,33.122c0.01-0.043,0.036-0.069,0.079-0.079C37.812,33.087,37.786,33.113,37.742,33.122z"/>
		<path fill="#05F5FC" d="M61.905,22.06c0.021-0.022,0.042-0.043,0.064-0.065C61.963,22.032,61.942,22.054,61.905,22.06z"/>
		<path fill="#13D8F2" d="M43.001,27.832c0.021-0.021,0.042-0.043,0.063-0.064C43.059,27.804,43.037,27.826,43.001,27.832z"/>
		<path fill="#1DC4EA" d="M20.334,27.127c0.043,0.01,0.069,0.037,0.077,0.081C20.367,27.199,20.343,27.17,20.334,27.127z"/>
		<path fill="#1DC4EA" d="M20.254,27.055c0.045,0.008,0.075,0.034,0.088,0.079C20.297,27.125,20.269,27.096,20.254,27.055z"/>
		<path fill="#05F5FC" d="M61.833,22.136c0.021-0.023,0.043-0.046,0.064-0.069C61.893,22.105,61.871,22.128,61.833,22.136z"/>
		<path fill="#05F5FC" d="M61.762,22.21c0.023-0.023,0.045-0.046,0.068-0.07C61.824,22.18,61.801,22.203,61.762,22.21z"/>
		<path fill="#05F5FC" d="M61.69,22.282c0.023-0.023,0.046-0.046,0.069-0.069C61.752,22.252,61.729,22.275,61.69,22.282z"/>
		<path fill="#05F5FC" d="M61.618,22.354c0.023-0.023,0.046-0.046,0.069-0.069C61.68,22.324,61.657,22.348,61.618,22.354z"/>
		<path fill="#0EE0F4" d="M7.11,25.614c0.043,0.001,0.079,0.017,0.104,0.054C7.168,25.67,7.134,25.652,7.11,25.614z"/>
		<path fill="#05F5FC" d="M61.545,22.426c0.023-0.023,0.046-0.046,0.069-0.069C61.608,22.397,61.585,22.42,61.545,22.426z"/>
		<path fill="#05F5FC" d="M61.473,22.498c0.023-0.023,0.046-0.046,0.069-0.069C61.536,22.469,61.513,22.492,61.473,22.498z"/>
		<path fill="#0FE0F4" d="M12.306,32.396c0.047,0.004,0.082,0.025,0.103,0.068C12.363,32.459,12.329,32.437,12.306,32.396z"/>
		<path fill="#24B8E6" d="M42.137,32.241c-0.024,0.025-0.049,0.049-0.073,0.074C42.073,32.276,42.098,32.251,42.137,32.241z"/>
		<path fill="#08EFFA" d="M57.794,25.171c0.025-0.04,0.061-0.059,0.108-0.062C57.878,25.149,57.841,25.169,57.794,25.171z"/>
		<path fill="#08EFFA" d="M57.941,25.094c0.022-0.037,0.056-0.056,0.098-0.058C58.017,25.074,57.985,25.094,57.941,25.094z"/>
		<path fill="#17D1EF" d="M38.031,32.835c0.014-0.048,0.047-0.073,0.095-0.079C38.108,32.798,38.078,32.827,38.031,32.835z"/>
		<path fill="#06F3FB" d="M59.454,24.16c0.028-0.022,0.055-0.043,0.083-0.065C59.524,24.136,59.495,24.156,59.454,24.16z"/>
		<path fill="#17D1EF" d="M37.959,32.906c0.01-0.043,0.037-0.069,0.081-0.078C38.03,32.872,38.002,32.897,37.959,32.906z"/>
		<path fill="#06F3FB" d="M59.668,24.009c0.026-0.021,0.053-0.041,0.079-0.062C59.735,23.985,59.709,24.006,59.668,24.009z"/>
		<path fill="#17D1EF" d="M37.887,32.978c0.01-0.043,0.036-0.069,0.079-0.079C37.957,32.942,37.93,32.969,37.887,32.978z"/>
		<path fill="#17D1EF" d="M37.815,33.05c0.01-0.043,0.036-0.069,0.079-0.079C37.884,33.015,37.858,33.041,37.815,33.05z"/>
		<path fill="#17D1EF" d="M37.668,33.192c0.012-0.041,0.038-0.067,0.08-0.076C37.739,33.159,37.711,33.183,37.668,33.192z"/>
		<path fill="#17D1EF" d="M37.596,33.263c0.011-0.041,0.037-0.067,0.078-0.078C37.664,33.228,37.638,33.254,37.596,33.263z"/>
		<path fill="#06F3FB" d="M59.745,23.95c0.015-0.039,0.043-0.062,0.084-0.07C59.817,23.923,59.787,23.944,59.745,23.95z"/>
		<path fill="#17D1EF" d="M37.524,33.336c0.011-0.041,0.037-0.067,0.078-0.078C37.592,33.3,37.566,33.326,37.524,33.336z"/>
		<path fill="#0BE8F7" d="M3.96,23.733c0.027,0.022,0.054,0.044,0.081,0.066C4,23.795,3.972,23.773,3.96,23.733z"/>
		<path fill="#0BE8F7" d="M3.881,23.666c0.043,0.006,0.071,0.031,0.085,0.072C3.922,23.731,3.892,23.71,3.881,23.666z"/>
		<path fill="#15D4F0" d="M39.032,31.871c0.022-0.021,0.043-0.042,0.065-0.063C39.091,31.845,39.069,31.866,39.032,31.871z"/>
		<path fill="#13D8F2" d="M42.929,27.906c0.021-0.022,0.043-0.045,0.064-0.067C42.987,27.877,42.965,27.898,42.929,27.906z"/>
		<path fill="#18CDEE" d="M36.082,34.71c0.015-0.046,0.047-0.071,0.095-0.078C36.158,34.673,36.127,34.701,36.082,34.71z"/>
		<path fill="#18CDEE" d="M36.011,34.782c0.01-0.043,0.036-0.069,0.079-0.079C36.081,34.746,36.054,34.773,36.011,34.782z"/>
		<path fill="#18CDEE" d="M35.937,34.852c0.011-0.042,0.038-0.068,0.08-0.077C36.008,34.819,35.98,34.843,35.937,34.852z"/>
		<path fill="#18CDEE" d="M35.864,34.923c0.012-0.041,0.038-0.067,0.079-0.077C35.933,34.888,35.906,34.913,35.864,34.923z"/>
		<path fill="#18CDEE" d="M35.792,34.994c0.012-0.04,0.038-0.066,0.078-0.077C35.86,34.959,35.834,34.985,35.792,34.994z"/>
		<path fill="#0BE8F7" d="M3.676,23.515c0.026,0.021,0.052,0.043,0.078,0.064C3.714,23.575,3.688,23.553,3.676,23.515z"/>
		<path fill="#18CDEE" d="M35.718,35.064c0.026-0.025,0.052-0.05,0.079-0.075C35.787,35.03,35.759,35.054,35.718,35.064z"/>
		<path fill="#18CDEE" d="M35.646,35.134c0.026-0.025,0.051-0.05,0.077-0.075C35.712,35.1,35.687,35.126,35.646,35.134z"/>
		<path fill="#0BE8F7" d="M3.597,23.446c0.04,0.009,0.067,0.033,0.082,0.071C3.637,23.51,3.608,23.488,3.597,23.446z"/>
		<path fill="#18CDEE" d="M35.572,35.204c0.025-0.024,0.051-0.048,0.076-0.072C35.638,35.171,35.612,35.194,35.572,35.204z"/>
		<path fill="#0BE8F7" d="M3.519,23.378c0.044,0.006,0.072,0.031,0.084,0.074C3.56,23.444,3.53,23.422,3.519,23.378z"/>
		<path fill="#18CDEE" d="M35.499,35.274c0.025-0.024,0.049-0.048,0.074-0.072C35.564,35.242,35.539,35.266,35.499,35.274z"/>
		<path fill="#0BE9F7" d="M53.249,19.412c0,2.352,0,4.703,0,7.055c-0.89,0-1.78,0-2.67,0c0-2.352,0-4.703,0-7.055
			C51.47,19.393,52.359,19.392,53.249,19.412z"/>
		<path fill="#0DE4F6" d="M50.58,19.412c0,2.352,0,4.703,0,7.055c-0.757,0.001-1.514,0.004-2.271,0.004
			c-0.397,0-0.399-0.002-0.399-0.391c-0.001-2.223,0-4.445,0-6.668C48.8,19.412,49.69,19.412,50.58,19.412z"/>
		<path fill="#14D6F0" d="M14.575,26.467c-0.794,0-1.587,0-2.381,0c0-2.352,0-4.704,0-7.056c0.794,0,1.587,0,2.381,0
			C14.575,21.764,14.575,24.115,14.575,26.467z"/>
		<path fill="#16D1EE" d="M14.575,26.467c0-2.352,0-4.704,0-7.055c0.722,0,1.443,0,2.165,0c0,2.352,0,4.704,0,7.055
			C16.018,26.467,15.296,26.467,14.575,26.467z"/>
		<path fill="#18CDED" d="M16.739,26.467c0-2.352,0-4.704,0-7.055c0.505,0,1.01,0,1.515,0c0,2.186,0,4.373,0,6.559
			c0,0.06,0.001,0.12,0,0.18c-0.006,0.314-0.006,0.317-0.326,0.319C17.532,26.473,17.136,26.468,16.739,26.467z"/>
	</g>
</g>
</svg>
