<?xml version="1.0" encoding="utf-8"?>
<!-- Generator: Adobe Illustrator 22.0.0, SVG Export Plug-In . SVG Version: 6.00 Build 0)  -->
<svg version="1.1" id="Camada_1" xmlns="http://www.w3.org/2000/svg" xmlns:xlink="http://www.w3.org/1999/xlink" x="0px" y="0px"
	 width="64px" height="64px" viewBox="0 0 64 64" enable-background="new 0 0 64 64" xml:space="preserve">
<g>
	<g>
		<path fill="#F40909" d="M21.649,16.501c0.143-0.001,0.285-0.002,0.428-0.003c3.271,3.883,6.542,7.766,9.813,11.649
			c0.038,0.045,0.081,0.086,0.121,0.128c0.005,0.037,0.028,0.064,0.051,0.091c0.259,0.307,0.519,0.614,0.776,0.922
			c0.394,0.472,0.785,0.945,1.179,1.416c0.318,0.381,0.639,0.76,0.96,1.138c0.045,0.052,0.082,0.119,0.161,0.131
			c0.016,0.06,0.063,0.099,0.101,0.144c1.127,1.339,2.254,2.678,3.381,4.017c1.769,2.102,3.539,4.202,5.305,6.306
			c0.086,0.102,0.169,0.139,0.301,0.129c0.402-0.03,0.806-0.044,1.209-0.065c0.51-0.027,1.019-0.052,1.529-0.083
			c0.681-0.041,1.362-0.085,2.043-0.13c0.574-0.038,1.148-0.076,1.722-0.119c0.674-0.051,1.348-0.107,2.022-0.163
			c0.597-0.05,1.194-0.097,1.79-0.157c0.169-0.017,0.344-0.008,0.53-0.067c-0.321-0.488-0.62-0.977-0.887-1.485
			c-0.268-0.509-0.515-1.028-0.73-1.562c-0.217-0.539-0.413-1.086-0.575-1.644c-0.16-0.552-0.299-1.11-0.405-1.675
			c-0.106-0.566-0.186-1.134-0.243-1.707c-0.058-0.574-0.084-1.148-0.084-1.724c0-0.581,0.027-1.162,0.085-1.742
			c0.057-0.573,0.142-1.141,0.249-1.706c0.107-0.565,0.241-1.124,0.405-1.675c0.164-0.551,0.353-1.094,0.572-1.626
			c0.221-0.538,0.468-1.063,0.74-1.577c0.267-0.504,0.565-0.991,0.879-1.488c-0.688-0.062-1.343-0.123-1.999-0.179
			c-0.662-0.056-1.324-0.106-1.987-0.156c-0.745-0.057-1.491-0.114-2.236-0.165c-0.663-0.045-1.326-0.084-1.99-0.12
			c-0.895-0.048-1.79-0.09-2.684-0.139c-0.106-0.006-0.173,0.026-0.241,0.107c-0.83,0.992-1.663,1.982-2.496,2.971
			c-0.317,0.376-0.638,0.749-0.957,1.123c-0.04-0.044-0.078-0.089-0.119-0.131c-0.188-0.188-0.388-0.363-0.577-0.549
			c-0.857-0.841-1.694-1.702-2.568-2.526c-0.047-0.044-0.085-0.102-0.159-0.102c0.277-0.363,0.581-0.703,0.875-1.052
			c1.335-1.589,2.673-3.175,4.011-4.762c0.166,0.002,0.333,0.003,0.499,0.005c0.492,0.024,0.983,0.052,1.475,0.071
			c1.269,0.049,2.537,0.118,3.804,0.193c1.06,0.063,2.12,0.135,3.179,0.213c1.106,0.081,2.212,0.165,3.317,0.27
			c0.933,0.089,1.867,0.169,2.799,0.263c0.826,0.083,1.651,0.177,2.476,0.271c0.836,0.095,1.673,0.194,2.508,0.297
			c0.647,0.079,1.294,0.167,1.94,0.251c0.016,0.002,0.038,0,0.042,0.033c-0.002,0.045-0.051,0.052-0.083,0.072
			c-2.577,1.587-4.387,3.824-5.575,6.587c-0.594,1.38-0.981,2.819-1.199,4.303c-0.156,1.065-0.217,2.137-0.179,3.213
			c0.076,2.153,0.494,4.236,1.326,6.228c0.765,1.831,1.817,3.476,3.225,4.883c0.703,0.703,1.479,1.317,2.319,1.849
			c0.058,0.037,0.125,0.064,0.179,0.134c-0.248,0.059-0.489,0.08-0.726,0.111c-0.752,0.098-1.506,0.191-2.259,0.28
			c-0.671,0.079-1.343,0.151-2.015,0.225c-0.613,0.067-1.226,0.135-1.839,0.198c-0.525,0.054-1.05,0.106-1.576,0.155
			c-0.768,0.07-1.536,0.139-2.304,0.204c-0.656,0.055-1.313,0.104-1.969,0.155c-0.532,0.041-1.065,0.081-1.597,0.118
			c-0.467,0.033-0.935,0.064-1.403,0.093c-0.74,0.046-1.48,0.092-2.221,0.132c-0.8,0.043-1.6,0.081-2.4,0.119
			c-0.379,0.018-0.759,0.031-1.138,0.048c-0.071,0.003-0.143,0.001-0.211,0.026c-0.131,0.001-0.262,0.003-0.393,0.004
			c-0.234-0.313-0.497-0.604-0.748-0.903c-3.025-3.593-6.053-7.185-9.08-10.777c-0.037-0.044-0.06-0.105-0.128-0.115
			c-0.019-0.051-0.056-0.09-0.091-0.13c-0.158-0.184-0.317-0.367-0.473-0.553c-0.395-0.472-0.788-0.946-1.182-1.418
			c-0.368-0.44-0.735-0.882-1.11-1.317c-0.079-0.091-0.133-0.213-0.257-0.262c0.012-0.086-0.06-0.124-0.103-0.176
			c-2.892-3.436-5.785-6.871-8.677-10.307c-0.074-0.088-0.146-0.131-0.268-0.125c-1.102,0.052-2.204,0.11-3.306,0.176
			c-1.214,0.073-2.427,0.154-3.639,0.252c-1.07,0.087-2.14,0.174-3.21,0.262c-0.241,0.02-0.48,0.046-0.74,0.072
			c1.952,2.986,2.922,6.253,2.924,9.802c0.002,3.552-0.959,6.826-2.91,9.804c0.089,0.04,0.161,0.038,0.232,0.044
			c0.591,0.052,1.181,0.106,1.772,0.156c0.668,0.057,1.336,0.114,2.004,0.165c0.58,0.044,1.16,0.081,1.74,0.12
			c0.835,0.055,1.669,0.114,2.504,0.163c0.871,0.051,1.742,0.09,2.613,0.14c0.12,0.007,0.195-0.027,0.271-0.118
			c0.792-0.946,1.588-1.889,2.384-2.832c0.356-0.421,0.714-0.84,1.072-1.26c0.03,0.019,0.066,0.032,0.089,0.057
			c0.178,0.19,0.39,0.343,0.572,0.53c0.376,0.387,0.765,0.76,1.141,1.146c0.491,0.505,1.026,0.965,1.513,1.474
			c0.036,0.038,0.069,0.083,0.131,0.083c-0.33,0.395-0.657,0.792-0.989,1.185c-1.278,1.517-2.557,3.034-3.835,4.55
			c-0.03,0.036-0.055,0.076-0.083,0.113c-0.131-0.001-0.262-0.002-0.392-0.003c-0.104-0.027-0.211-0.027-0.318-0.031
			c-0.913-0.041-1.826-0.074-2.739-0.122c-0.942-0.05-1.884-0.094-2.825-0.162c-0.799-0.057-1.599-0.1-2.397-0.158
			c-0.846-0.061-1.691-0.13-2.537-0.2c-0.739-0.061-1.478-0.123-2.216-0.191c-0.661-0.061-1.322-0.131-1.983-0.199
			c-0.608-0.062-1.215-0.124-1.822-0.191c-0.56-0.062-1.119-0.13-1.678-0.198c-0.612-0.074-1.224-0.149-1.836-0.227
			c-0.441-0.056-0.881-0.117-1.325-0.176c0.006-0.064,0.059-0.073,0.095-0.095c1.525-0.93,2.799-2.131,3.851-3.571
			c0.859-1.176,1.52-2.458,2.019-3.825c0.406-1.111,0.689-2.254,0.866-3.423c0.166-1.094,0.235-2.194,0.2-3.3
			c-0.073-2.337-0.547-4.587-1.51-6.723c-0.905-2.009-2.17-3.753-3.877-5.162c-0.462-0.382-0.948-0.732-1.46-1.046
			C0.13,18.46,0.057,18.43,0,18.362c0.101-0.053,0.211-0.048,0.313-0.063c1.067-0.161,2.136-0.306,3.206-0.443
			c1.035-0.132,2.072-0.249,3.11-0.357c0.855-0.089,1.711-0.172,2.568-0.248c1.064-0.094,2.128-0.173,3.193-0.251
			c1.101-0.081,2.202-0.15,3.303-0.213c1.439-0.082,2.879-0.158,4.32-0.214C20.558,16.552,21.104,16.525,21.649,16.501z"/>
		<path fill="#BC0606" d="M29.887,38.204c-0.296,0.369-0.59,0.74-0.919,1.08c-0.052,0.054-0.085,0.125-0.154,0.164
			c-0.067-0.001-0.105-0.048-0.147-0.089c-0.762-0.744-1.49-1.522-2.275-2.243c-0.292-0.268-0.563-0.559-0.843-0.84
			c-0.046-0.046-0.1-0.084-0.127-0.147c0.337-0.428,0.69-0.842,1.05-1.25c0.06,0.019,0.096,0.067,0.138,0.109
			c0.151,0.15,0.303,0.299,0.452,0.452c0.888,0.909,1.828,1.766,2.714,2.678C29.809,38.151,29.841,38.188,29.887,38.204z"/>
		<path fill="#A60606" d="M29.887,38.204c-0.047-0.017-0.078-0.053-0.111-0.087c-0.886-0.911-1.826-1.768-2.714-2.678
			c-0.149-0.152-0.301-0.302-0.452-0.452c-0.042-0.041-0.078-0.09-0.138-0.109c0.008-0.009,0.017-0.019,0.025-0.028
			c0.01-0.013,0.019-0.025,0.029-0.038c0.043-0.055,0.085-0.112,0.131-0.165c0.279-0.329,0.56-0.657,0.84-0.986
			c0.053,0.017,0.089,0.058,0.127,0.095c0.64,0.623,1.252,1.274,1.91,1.88c0.422,0.389,0.815,0.809,1.221,1.215
			c0.05,0.05,0.106,0.095,0.133,0.164C30.565,37.422,30.233,37.819,29.887,38.204z"/>
		<path fill="#D10707" d="M25.423,36.13c0.027,0.062,0.081,0.101,0.127,0.147c0.28,0.281,0.551,0.572,0.843,0.84
			c0.785,0.721,1.513,1.499,2.275,2.243c0.042,0.041,0.08,0.089,0.147,0.089c-0.006,0.022-0.006,0.05-0.02,0.066
			c-0.316,0.368-0.615,0.751-0.944,1.108c-0.082-0.002-0.121-0.067-0.171-0.116c-0.625-0.604-1.218-1.24-1.859-1.829
			c-0.44-0.404-0.849-0.842-1.271-1.265c-0.042-0.042-0.089-0.08-0.089-0.147c0.193-0.232,0.384-0.465,0.579-0.695
			C25.165,36.423,25.281,36.265,25.423,36.13z"/>
		<path fill="#E40808" d="M24.46,37.266c0,0.067,0.048,0.105,0.089,0.147c0.423,0.423,0.832,0.86,1.271,1.265
			c0.641,0.589,1.234,1.225,1.859,1.829c0.05,0.048,0.089,0.114,0.171,0.116c-0.276,0.353-0.567,0.695-0.866,1.03
			c-0.061,0.001-0.094-0.045-0.131-0.083c-0.487-0.509-1.022-0.969-1.513-1.474c-0.375-0.387-0.765-0.76-1.141-1.146
			c-0.182-0.187-0.394-0.34-0.572-0.53c-0.023-0.025-0.059-0.038-0.089-0.057C23.834,37.986,24.149,37.628,24.46,37.266z"/>
		<path fill="#920505" d="M30.888,37.017c-0.027-0.069-0.083-0.114-0.133-0.164c-0.406-0.406-0.799-0.826-1.221-1.215
			c-0.657-0.606-1.269-1.257-1.91-1.88c-0.038-0.037-0.074-0.077-0.127-0.095c0.241-0.304,0.488-0.603,0.75-0.89
			c0.059,0.02,0.097,0.067,0.139,0.108c0.742,0.722,1.447,1.481,2.211,2.18c0.318,0.292,0.613,0.609,0.919,0.914
			c0.046,0.046,0.095,0.089,0.121,0.152C31.398,36.433,31.148,36.729,30.888,37.017z"/>
		<path fill="#870505" d="M31.637,36.128c-0.025-0.062-0.075-0.106-0.121-0.152c-0.306-0.306-0.6-0.623-0.919-0.914
			c-0.764-0.7-1.469-1.459-2.211-2.18c-0.042-0.041-0.08-0.088-0.139-0.108c0.2-0.258,0.409-0.507,0.63-0.747
			c0.125,0.048,0.178,0.17,0.257,0.262c0.375,0.434,0.742,0.876,1.11,1.317c0.395,0.472,0.787,0.946,1.182,1.418
			c0.156,0.186,0.315,0.37,0.473,0.553c0.035,0.041,0.072,0.079,0.091,0.13C31.884,35.856,31.765,35.995,31.637,36.128z"/>
		<path fill="#BC0606" d="M34.139,25.779c0.239-0.317,0.507-0.61,0.761-0.915c0.098-0.118,0.189-0.243,0.303-0.347
			c0.047,0.016,0.079,0.052,0.111,0.086c0.693,0.719,1.437,1.387,2.137,2.1c0.336,0.342,0.677,0.678,1.016,1.017
			c0.046,0.045,0.085,0.1,0.149,0.123c-0.126,0.154-0.249,0.311-0.379,0.462c-0.245,0.287-0.477,0.586-0.737,0.859
			c-0.002-0.081-0.064-0.123-0.114-0.172c-0.326-0.325-0.659-0.644-0.991-0.963c-0.618-0.594-1.216-1.209-1.823-1.815
			c-0.079-0.079-0.157-0.158-0.25-0.223C34.249,25.936,34.175,25.872,34.139,25.779z"/>
		<path fill="#A60606" d="M34.139,25.779c0.036,0.093,0.11,0.157,0.185,0.21c0.093,0.066,0.171,0.144,0.25,0.223
			c0.607,0.606,1.204,1.221,1.823,1.815c0.332,0.319,0.664,0.638,0.991,0.963c0.049,0.049,0.112,0.092,0.114,0.172
			c-0.322,0.411-0.66,0.809-1.007,1.2c-0.05-0.058-0.097-0.119-0.151-0.173c-0.387-0.383-0.775-0.766-1.169-1.142
			c-0.605-0.577-1.186-1.179-1.777-1.77c-0.096-0.096-0.194-0.189-0.328-0.232c0.276-0.36,0.581-0.696,0.87-1.045
			C34.003,25.925,34.072,25.853,34.139,25.779z"/>
		<path fill="#D10707" d="M38.617,27.841c-0.065-0.022-0.104-0.077-0.149-0.123c-0.339-0.338-0.681-0.675-1.016-1.017
			c-0.7-0.713-1.444-1.381-2.137-2.1c-0.033-0.034-0.065-0.07-0.111-0.086c0.265-0.347,0.561-0.67,0.838-1.007
			c0.056-0.068,0.118-0.131,0.177-0.196c0.083,0.056,0.164,0.113,0.237,0.184c0.501,0.486,0.982,0.993,1.494,1.469
			c0.538,0.5,1.044,1.035,1.563,1.555c0.042,0.042,0.088,0.081,0.088,0.148C39.287,27.071,38.956,27.46,38.617,27.841z"/>
		<path fill="#E50808" d="M39.602,26.669c-0.001-0.067-0.047-0.106-0.088-0.148c-0.52-0.52-1.025-1.055-1.563-1.555
			c-0.513-0.476-0.993-0.983-1.494-1.469c-0.073-0.071-0.154-0.128-0.237-0.184c0.27-0.343,0.551-0.677,0.845-1.001
			c0.075,0,0.113,0.058,0.159,0.102c0.874,0.824,1.711,1.685,2.568,2.526c0.189,0.186,0.389,0.361,0.577,0.549
			c0.042,0.042,0.08,0.087,0.119,0.131C40.203,25.979,39.911,26.331,39.602,26.669z"/>
		<path fill="#920505" d="M33.069,27.047c0.134,0.043,0.232,0.136,0.328,0.232c0.592,0.591,1.172,1.193,1.777,1.77
			c0.394,0.376,0.782,0.758,1.169,1.142c0.054,0.054,0.101,0.115,0.151,0.173c-0.25,0.316-0.506,0.626-0.779,0.923
			c0.016-0.1-0.062-0.147-0.119-0.204c-0.905-0.917-1.853-1.791-2.751-2.715c-0.099-0.102-0.202-0.2-0.3-0.302
			c-0.064-0.066-0.134-0.116-0.227-0.128C32.559,27.632,32.804,27.331,33.069,27.047z"/>
		<path fill="#870505" d="M32.319,27.937c0.093,0.012,0.163,0.062,0.227,0.128c0.099,0.102,0.202,0.2,0.3,0.302
			c0.898,0.924,1.846,1.798,2.751,2.715c0.057,0.057,0.134,0.104,0.119,0.204c-0.18,0.24-0.376,0.466-0.577,0.689
			c-0.08-0.011-0.117-0.078-0.161-0.131c-0.322-0.378-0.642-0.757-0.96-1.138c-0.394-0.471-0.785-0.945-1.179-1.416
			c-0.257-0.308-0.517-0.615-0.776-0.922c-0.023-0.028-0.046-0.054-0.051-0.091C32.114,28.163,32.216,28.05,32.319,27.937z"/>
		<path fill="#BC0606" d="M26.498,34.851c-0.001-0.021,0.012-0.03,0.029-0.038C26.518,34.826,26.508,34.839,26.498,34.851z"/>
	</g>
</g>
<g>
	<g>
		<path fill="#FDACAC" d="M0.075,45.623C0.05,45.624,0.025,45.625,0,45.626c0-0.012,0-0.024,0-0.036
			c0.025,0.001,0.05,0.002,0.074,0.002C0.072,45.603,0.072,45.613,0.075,45.623z"/>
		<path fill="#F30808" d="M0.075,45.623c-0.003-0.01-0.003-0.02-0.001-0.03c1.213-0.72,2.275-1.62,3.2-2.684
			c1.323-1.523,2.267-3.261,2.91-5.167c0.389-1.153,0.648-2.336,0.796-3.545c0.161-1.317,0.179-2.637,0.055-3.956
			c-0.18-1.919-0.641-3.767-1.435-5.526c-0.906-2.006-2.168-3.748-3.872-5.155c-0.476-0.393-0.976-0.752-1.503-1.072
			c-0.045-0.028-0.094-0.051-0.135-0.085c-0.02-0.017,0.005-0.041,0.022-0.057c0.308-0.017,0.609-0.084,0.914-0.124
			c0.645-0.086,1.289-0.181,1.935-0.267c0.522-0.07,1.045-0.135,1.568-0.197c0.576-0.068,1.153-0.133,1.73-0.195
			c0.653-0.07,1.307-0.138,1.961-0.201c0.578-0.056,1.156-0.106,1.734-0.154c0.72-0.059,1.441-0.114,2.161-0.168
			c0.561-0.042,1.122-0.082,1.684-0.118c0.721-0.047,1.443-0.09,2.164-0.132c0.52-0.03,1.041-0.056,1.562-0.081
			c0.923-0.045,1.846-0.088,2.77-0.13c0.468-0.021,0.935-0.037,1.403-0.056c0.071,0.013,0.142,0.006,0.213,0
			c0.072,0.001,0.144,0.001,0.217,0.002c0.78,0.923,1.561,1.844,2.339,2.768c2.491,2.958,4.981,5.916,7.472,8.874
			c0.034,0.04,0.073,0.077,0.11,0.115c0.025,0.083,0.089,0.136,0.145,0.196c0,0,0.002,0.003,0.002,0.003
			c0.011,0.012,0.022,0.024,0.033,0.036c0,0,0,0.001,0,0.001c0.012,0.012,0.023,0.025,0.035,0.037c0,0-0.001-0.001-0.001-0.001
			c0.012,0.012,0.024,0.025,0.036,0.037c0,0-0.001-0.001-0.001-0.001c0.012,0.012,0.024,0.025,0.036,0.037l-0.002-0.001
			c0.002,0.029,0.012,0.053,0.04,0.066c0,0,0.002,0.003,0.002,0.003c0.011,0.012,0.021,0.023,0.032,0.035l0.001,0.001
			c0.011,0.012,0.023,0.024,0.034,0.036l0,0c0.012,0.012,0.023,0.025,0.035,0.037l-0.001-0.001c0.012,0.012,0.024,0.025,0.036,0.037
			c0,0-0.001-0.001-0.001-0.001c0.012,0.014,0.024,0.028,0.036,0.042c0.007,0.058,0.053,0.09,0.087,0.13
			c0.096,0.112,0.194,0.222,0.289,0.336c0.337,0.403,0.672,0.807,1.008,1.21c0.352,0.421,0.704,0.842,1.058,1.262
			c0.052,0.062,0.094,0.139,0.184,0.158c0.018,0.066,0.071,0.108,0.112,0.157c2.152,2.557,4.305,5.114,6.457,7.671
			c0.744,0.884,1.489,1.767,2.231,2.654c0.067,0.081,0.135,0.113,0.241,0.104c0.248-0.021,0.497-0.026,0.746-0.04
			c0.953-0.054,1.905-0.106,2.857-0.164c0.798-0.048,1.597-0.098,2.395-0.156c0.845-0.061,1.689-0.13,2.534-0.2
			c0.726-0.06,1.452-0.125,2.178-0.189c0.049-0.004,0.103-0.004,0.149-0.045c-1.959-2.976-2.909-6.249-2.907-9.791
			c0.002-3.541,0.971-6.807,2.927-9.787c-0.221-0.019-0.416-0.036-0.61-0.053c-0.62-0.055-1.239-0.112-1.859-0.164
			c-0.508-0.043-1.016-0.081-1.524-0.119c-0.744-0.056-1.489-0.113-2.234-0.164c-0.662-0.045-1.325-0.084-1.987-0.12
			c-0.894-0.048-1.787-0.089-2.681-0.138c-0.1-0.005-0.164,0.026-0.226,0.1c-0.83,0.99-1.661,1.979-2.494,2.966
			c-0.271,0.321-0.531,0.651-0.819,0.958c0-0.076-0.061-0.112-0.106-0.157c-0.347-0.348-0.698-0.692-1.042-1.044
			c-0.683-0.699-1.412-1.349-2.09-2.053c-0.041-0.042-0.079-0.091-0.146-0.09c0.276-0.363,0.58-0.702,0.873-1.051
			c1.265-1.505,2.533-3.009,3.8-4.513c0.008-0.009,0.017-0.017,0.025-0.025c0.096,0,0.192,0,0.287,0c0.047,0,0.095,0,0.142,0
			c0.84,0.038,1.681,0.072,2.521,0.114c1.006,0.05,2.011,0.096,3.016,0.166c0.626,0.044,1.253,0.077,1.879,0.121
			c0.738,0.051,1.477,0.107,2.215,0.164c0.644,0.049,1.287,0.1,1.93,0.155c0.584,0.05,1.167,0.107,1.751,0.163
			c0.525,0.05,1.049,0.101,1.573,0.155c0.607,0.062,1.213,0.127,1.819,0.193c0.465,0.051,0.929,0.105,1.394,0.161
			c0.535,0.064,1.069,0.131,1.603,0.199c0.587,0.075,1.174,0.152,1.761,0.228c0.041,0.005,0.083,0.003,0.124,0.004
			c0.021,0.087-0.059,0.093-0.103,0.12c-0.333,0.205-0.657,0.423-0.971,0.656c-1.522,1.128-2.741,2.525-3.697,4.155
			c-0.904,1.541-1.511,3.195-1.879,4.941c-0.301,1.422-0.427,2.86-0.378,4.31c0.087,2.586,0.668,5.053,1.848,7.365
			c0.804,1.576,1.834,2.986,3.152,4.176c0.582,0.525,1.203,0.999,1.866,1.418c0.054,0.034,0.107,0.071,0.174,0.116
			c-0.123,0.077-0.261,0.035-0.374,0.09c-0.364,0.043-0.729,0.084-1.093,0.128c-0.535,0.065-1.069,0.134-1.604,0.197
			c-0.694,0.082-1.388,0.161-2.083,0.237c-0.618,0.067-1.237,0.129-1.855,0.192c-0.542,0.055-1.084,0.112-1.626,0.164
			c-0.454,0.043-0.909,0.079-1.363,0.118c-0.49,0.041-0.98,0.082-1.47,0.122c-0.537,0.043-1.075,0.087-1.612,0.127
			c-0.614,0.046-1.229,0.09-1.844,0.131c-0.65,0.043-1.301,0.082-1.951,0.12c-0.763,0.045-1.526,0.089-2.289,0.129
			c-0.609,0.031-1.219,0.055-1.829,0.082c-0.047,0.002-0.095,0.005-0.142,0.008c-0.144-0.004-0.289-0.012-0.43,0.027l0-0.001
			c-0.059-0.015-0.116-0.004-0.174,0.006c-0.095-0.001-0.19-0.001-0.285-0.002c-0.59-0.703-1.179-1.406-1.77-2.108
			c-2.682-3.184-5.365-6.368-8.048-9.552c-0.037-0.044-0.06-0.105-0.128-0.114c-0.047-0.119-0.154-0.191-0.23-0.287
			c-0.192-0.243-0.389-0.483-0.603-0.708c0,0,0-0.001,0-0.001c-0.011-0.012-0.023-0.024-0.034-0.036c0,0,0,0,0,0
			c-0.012-0.012-0.024-0.025-0.035-0.037c0,0,0.001,0.001,0.001,0.001c-0.012-0.012-0.024-0.025-0.036-0.037l0.001,0.001
			c-0.012-0.014-0.024-0.028-0.036-0.043c0-0.01-0.002-0.02-0.007-0.028c-0.011-0.011-0.021-0.022-0.032-0.033
			c0,0-0.001-0.001-0.001-0.001c-0.011-0.012-0.023-0.024-0.034-0.037l0,0c-0.012-0.012-0.024-0.025-0.035-0.037l0.001,0.001
			c-0.012-0.012-0.024-0.025-0.036-0.037c0,0,0.001,0.001,0.001,0.001c-0.012-0.014-0.024-0.028-0.036-0.042
			c0-0.01-0.003-0.02-0.008-0.029c-0.01-0.01-0.021-0.021-0.031-0.031c0,0-0.002-0.002-0.002-0.002
			c-0.011-0.012-0.022-0.024-0.033-0.036c0,0,0,0,0,0c-0.012-0.012-0.023-0.025-0.035-0.037c0,0,0.001,0.001,0.001,0.001
			c-0.012-0.012-0.024-0.025-0.036-0.037l0.001,0.001c-0.012-0.014-0.024-0.028-0.035-0.042c0-0.01-0.003-0.02-0.008-0.029
			c-0.01-0.01-0.021-0.021-0.031-0.031l-0.002-0.002c-0.011-0.012-0.022-0.024-0.033-0.035l0-0.001
			c-0.012-0.012-0.023-0.024-0.035-0.037l0.001,0.001c-0.012-0.012-0.024-0.025-0.036-0.037l0.001,0.001
			c-0.012-0.012-0.024-0.025-0.036-0.037l0.002,0.001c-0.002-0.029-0.011-0.053-0.04-0.066l-0.002-0.003
			c-0.011-0.012-0.021-0.023-0.032-0.035c0,0-0.001-0.001-0.001-0.001c-0.011-0.012-0.023-0.024-0.034-0.036c0,0,0,0,0,0
			c-0.012-0.012-0.023-0.025-0.035-0.037l0.001,0.001c-0.012-0.014-0.024-0.027-0.036-0.041c-0.031-0.065-0.078-0.117-0.125-0.171
			c-0.146-0.17-0.289-0.343-0.434-0.514c-0.286-0.338-0.572-0.675-0.858-1.012c-0.14-0.221-0.324-0.406-0.491-0.605
			c-2.762-3.283-5.527-6.564-8.289-9.847c-0.075-0.089-0.147-0.13-0.269-0.123c-0.828,0.046-1.657,0.081-2.486,0.124
			c-0.414,0.021-0.828,0.047-1.242,0.075c-0.78,0.052-1.561,0.107-2.341,0.163c-0.538,0.038-1.076,0.076-1.613,0.12
			c-0.809,0.066-1.618,0.136-2.426,0.206c-0.251,0.022-0.502,0.048-0.772,0.074c1.951,2.985,2.919,6.248,2.921,9.793
			c0.001,3.548-0.959,6.817-2.919,9.808c0.236,0.023,0.442,0.044,0.647,0.062c0.596,0.052,1.192,0.106,1.788,0.155
			c0.709,0.058,1.417,0.114,2.126,0.166c0.579,0.043,1.159,0.081,1.738,0.119c0.668,0.044,1.336,0.089,2.005,0.127
			c0.846,0.048,1.693,0.087,2.539,0.137c0.131,0.008,0.215-0.024,0.302-0.128c0.79-0.946,1.584-1.889,2.381-2.829
			c0.291-0.343,0.569-0.697,0.877-1.026c0.026,0.063,0.081,0.1,0.125,0.147c0.421,0.447,0.882,0.853,1.321,1.283
			c0.607,0.595,1.18,1.225,1.819,1.787c0.044,0.039,0.09,0.077,0.116,0.132c-0.23,0.308-0.489,0.593-0.736,0.887
			c-1.289,1.532-2.58,3.062-3.869,4.592c-0.019,0.023-0.036,0.046-0.055,0.07c-0.083,0.001-0.166,0.002-0.25,0.003
			c-0.07-0.009-0.141-0.023-0.212-0.007c-0.093-0.024-0.188-0.021-0.283-0.025c-1.142-0.052-2.285-0.097-3.427-0.157
			c-1.236-0.065-2.472-0.14-3.707-0.232c-0.738-0.055-1.478-0.099-2.216-0.156c-0.774-0.061-1.546-0.131-2.319-0.199
			c-0.696-0.062-1.392-0.123-2.088-0.191c-0.637-0.062-1.273-0.13-1.908-0.198c-0.683-0.074-1.366-0.149-2.048-0.229
			c-0.623-0.074-1.246-0.154-1.868-0.234C1.225,45.776,0.65,45.699,0.075,45.623z"/>
		<path fill="#8F0505" d="M31.415,36.429c0.001,0.012-0.004,0.019-0.016,0.021c-0.009,0.01-0.017,0.019-0.026,0.029
			c0,0-0.003,0.004-0.003,0.004c-0.01,0.012-0.021,0.024-0.031,0.036c0,0,0,0,0,0c-0.083-0.002-0.12-0.07-0.17-0.118
			c-0.55-0.529-1.073-1.086-1.634-1.605c-0.513-0.475-0.993-0.984-1.487-1.479c-0.042-0.042-0.089-0.08-0.093-0.146l-0.001,0.001
			c0.021-0.006,0.033-0.02,0.036-0.042l-0.003,0.004c0.023-0.005,0.035-0.019,0.036-0.042l-0.004,0.004
			c0.037-0.003,0.046-0.029,0.049-0.06c0.12-0.163,0.249-0.319,0.391-0.463c-0.049,0.105-0.027,0.186,0.065,0.261
			c0.109,0.089,0.22,0.177,0.319,0.278c0.41,0.417,0.83,0.824,1.238,1.243c0.503,0.516,1.049,0.987,1.545,1.509
			c0.051,0.054,0.107,0.092,0.182,0.096c-0.105,0.151-0.223,0.29-0.353,0.42C31.432,36.388,31.419,36.404,31.415,36.429z"/>
		<path fill="#D10707" d="M28.572,39.805c-0.093,0.139-0.201,0.264-0.32,0.381c-0.022,0.006-0.035,0.02-0.038,0.042
			c0,0,0.004-0.004,0.004-0.004c-0.034,0.006-0.044,0.031-0.048,0.06l-0.003,0.004c-0.046,0.002-0.077-0.025-0.106-0.056
			c-0.236-0.249-0.506-0.461-0.746-0.706c-0.538-0.549-1.086-1.089-1.63-1.633c-0.038-0.038-0.074-0.077-0.116-0.11
			c-0.3-0.242-0.557-0.526-0.82-0.806c0,0-0.001,0.002-0.001,0.002c0.023-0.007,0.035-0.023,0.039-0.046
			c0.129-0.184,0.278-0.352,0.433-0.515c-0.016,0.1,0.063,0.146,0.119,0.204c0.642,0.67,1.335,1.287,1.985,1.949
			c0.365,0.371,0.735,0.736,1.103,1.104C28.474,39.719,28.524,39.761,28.572,39.805z"/>
		<path fill="#980505" d="M27.955,33.172c0.004,0.066,0.051,0.104,0.093,0.146c0.494,0.494,0.974,1.004,1.487,1.479
			c0.561,0.519,1.083,1.076,1.634,1.605c0.05,0.048,0.087,0.116,0.17,0.118c-0.107,0.153-0.227,0.294-0.358,0.426
			c-0.069,0.001-0.103-0.053-0.144-0.093c-0.6-0.58-1.171-1.189-1.785-1.756c-0.466-0.43-0.9-0.893-1.348-1.341
			c-0.046-0.046-0.099-0.086-0.107-0.158c0,0-0.001,0.001-0.001,0.001c0.022-0.005,0.034-0.019,0.037-0.042l-0.004,0.004
			c0.035-0.005,0.044-0.03,0.048-0.059C27.759,33.382,27.849,33.27,27.955,33.172z"/>
		<path fill="#A50505" d="M30.676,37.307c-0.098,0.138-0.205,0.27-0.328,0.388c-0.021,0.007-0.033,0.021-0.036,0.042
			c0,0,0.002-0.001,0.002-0.001c-0.028-0.022-0.058-0.042-0.083-0.066c-0.493-0.487-0.982-0.977-1.484-1.454
			c-0.575-0.547-1.127-1.12-1.688-1.682c-0.046-0.046-0.099-0.086-0.13-0.145l0.002-0.003c0.011-0.012,0.022-0.024,0.032-0.037
			c0.107-0.152,0.225-0.293,0.357-0.425c-0.012,0.057-0.029,0.114,0.033,0.158c0.029,0.02,0.051,0.049,0.076,0.075
			c0.998,1.021,2.048,1.988,3.044,3.01C30.533,37.228,30.598,37.277,30.676,37.307z"/>
		<path fill="#C70606" d="M28.572,39.805c-0.048-0.044-0.098-0.086-0.143-0.132c-0.368-0.367-0.739-0.733-1.103-1.104
			c-0.65-0.661-1.343-1.279-1.985-1.949c-0.056-0.058-0.134-0.104-0.119-0.204c0.091-0.132,0.194-0.255,0.31-0.366
			c0.048,0.052,0.094,0.106,0.143,0.157c0.688,0.708,1.425,1.366,2.112,2.075c0.296,0.306,0.602,0.602,0.902,0.905
			c0.055,0.055,0.117,0.098,0.179,0.143c0.036,0.026,0.068,0.004,0.101,0.003c-0.107,0.153-0.226,0.295-0.359,0.426
			c-0.023,0.006-0.036,0.02-0.039,0.044L28.572,39.805z"/>
		<path fill="#BC0606" d="M29.538,38.658c-0.096,0.141-0.207,0.269-0.327,0.389c-0.089-0.067-0.184-0.127-0.264-0.207
			c-0.976-0.976-1.947-1.957-2.945-2.911c-0.068-0.065-0.131-0.136-0.21-0.189l0.002-0.003c0.011-0.012,0.022-0.024,0.032-0.036l0,0
			c0.011-0.014,0.022-0.027,0.034-0.041c0.095-0.138,0.203-0.266,0.322-0.384c-0.037,0.085-0.018,0.148,0.053,0.215
			c0.188,0.178,0.382,0.351,0.567,0.532c0.859,0.844,1.699,1.707,2.575,2.535C29.424,38.604,29.465,38.657,29.538,38.658z"/>
		<path fill="#E80808" d="M27.387,41.214c-0.091,0.13-0.191,0.251-0.305,0.361c-0.058-0.001-0.099-0.035-0.136-0.075
			C26.65,41.176,26.308,40.902,26,40.59c-0.541-0.547-1.085-1.093-1.634-1.632c-0.189-0.186-0.396-0.354-0.58-0.547
			c-0.049-0.051-0.108-0.096-0.094-0.18c0.083-0.119,0.174-0.233,0.281-0.332c0.03,0.067,0.083,0.119,0.141,0.156
			c0.097,0.062,0.172,0.144,0.251,0.223c0.423,0.422,0.849,0.842,1.267,1.268c0.53,0.54,1.101,1.038,1.623,1.586
			C27.292,41.171,27.326,41.215,27.387,41.214z"/>
		<path fill="#9E0505" d="M30.676,37.307c-0.079-0.031-0.143-0.08-0.202-0.14c-0.996-1.022-2.047-1.989-3.044-3.01
			c-0.025-0.025-0.047-0.054-0.076-0.075c-0.062-0.044-0.045-0.1-0.033-0.158l0.001-0.002c0.011-0.012,0.022-0.025,0.033-0.037
			c0,0-0.001,0.001-0.001,0.001c0.011-0.014,0.023-0.028,0.034-0.042c0.058-0.093,0.125-0.177,0.209-0.248
			c0.007,0.072,0.061,0.112,0.107,0.158c0.448,0.448,0.882,0.912,1.348,1.341c0.614,0.567,1.185,1.176,1.785,1.756
			c0.042,0.04,0.076,0.094,0.144,0.093C30.891,37.076,30.789,37.196,30.676,37.307z"/>
		<path fill="#B60606" d="M29.538,38.658c-0.073-0.001-0.114-0.055-0.161-0.099c-0.876-0.827-1.716-1.69-2.575-2.535
			c-0.184-0.181-0.378-0.354-0.567-0.532c-0.071-0.067-0.09-0.13-0.053-0.215c0.071-0.107,0.151-0.206,0.247-0.292
			c0.026,0.062,0.081,0.101,0.126,0.147c0.386,0.382,0.774,0.763,1.166,1.139c0.628,0.601,1.233,1.226,1.848,1.841
			c0.079,0.079,0.16,0.157,0.273,0.186C29.753,38.428,29.652,38.548,29.538,38.658z"/>
		<path fill="#D80707" d="M24.751,36.977c0.263,0.28,0.52,0.564,0.82,0.806c0.041,0.033,0.078,0.072,0.116,0.11
			c0.544,0.544,1.092,1.083,1.63,1.633c0.24,0.245,0.51,0.457,0.746,0.706c0.029,0.031,0.06,0.058,0.106,0.056
			c-0.092,0.129-0.191,0.252-0.306,0.361c-0.089-0.003-0.131-0.075-0.185-0.127c-0.752-0.73-1.465-1.5-2.24-2.208
			c-0.302-0.276-0.581-0.576-0.869-0.866c-0.041-0.041-0.094-0.075-0.094-0.144C24.556,37.186,24.645,37.074,24.751,36.977z"/>
		<path fill="#870404" d="M31.809,35.961c-0.076-0.004-0.131-0.042-0.182-0.096c-0.496-0.522-1.043-0.993-1.545-1.509
			c-0.408-0.419-0.828-0.826-1.238-1.243c-0.1-0.101-0.211-0.188-0.319-0.278c-0.092-0.076-0.113-0.157-0.065-0.261
			c0.06-0.093,0.129-0.179,0.213-0.252c0.029,0.061,0.083,0.1,0.129,0.146c0.687,0.687,1.366,1.381,2.078,2.042
			c0.082,0.076,0.171,0.145,0.258,0.215c0.021,0.016,0.044,0.005,0.059-0.018c0.213,0.225,0.41,0.465,0.603,0.708
			c0.076,0.096,0.183,0.168,0.23,0.287c-0.031,0.055-0.067,0.106-0.121,0.142c-0.011,0.013-0.022,0.025-0.033,0.038
			c0,0,0.001-0.001,0.001-0.001c-0.019,0.007-0.031,0.02-0.034,0.041c0,0,0.003-0.003,0.003-0.003
			C31.822,35.924,31.81,35.938,31.809,35.961L31.809,35.961z"/>
		<path fill="#C20606" d="M25.791,35.741c0.079,0.053,0.142,0.124,0.21,0.189c0.998,0.953,1.969,1.935,2.945,2.911
			c0.08,0.08,0.175,0.14,0.264,0.207c-0.069,0.105-0.148,0.202-0.241,0.286c-0.034,0.001-0.065,0.023-0.101-0.003
			c-0.062-0.045-0.125-0.088-0.179-0.143c-0.3-0.303-0.606-0.599-0.902-0.905c-0.687-0.709-1.424-1.367-2.112-2.075
			c-0.049-0.051-0.095-0.105-0.143-0.157l0,0.001c0.034-0.005,0.043-0.03,0.047-0.059C25.638,35.899,25.709,35.815,25.791,35.741z"
			/>
		<path fill="#EE0808" d="M23.692,38.232c-0.014,0.084,0.045,0.128,0.094,0.18c0.184,0.193,0.39,0.361,0.58,0.547
			c0.549,0.539,1.092,1.085,1.634,1.632c0.308,0.311,0.65,0.586,0.946,0.909c0.037,0.04,0.077,0.074,0.136,0.075
			c-0.086,0.128-0.184,0.245-0.296,0.351c-0.026-0.056-0.072-0.094-0.116-0.132c-0.639-0.563-1.212-1.192-1.819-1.787
			c-0.438-0.43-0.899-0.836-1.321-1.283c-0.044-0.047-0.1-0.084-0.125-0.147C23.487,38.45,23.586,38.338,23.692,38.232z"/>
		<path fill="#B00606" d="M29.843,38.297c-0.113-0.029-0.194-0.106-0.273-0.186c-0.615-0.615-1.22-1.24-1.848-1.841
			c-0.393-0.376-0.78-0.757-1.166-1.139c-0.046-0.045-0.1-0.084-0.126-0.147c0.069-0.105,0.147-0.202,0.242-0.286
			c0.082,0.076,0.168,0.148,0.247,0.227c0.432,0.43,0.864,0.859,1.292,1.292c0.56,0.568,1.16,1.096,1.71,1.674
			c0.051,0.054,0.107,0.092,0.183,0.096C30.028,38.102,29.94,38.204,29.843,38.297z"/>
		<path fill="#E20707" d="M27.387,41.214c-0.061,0.001-0.095-0.043-0.131-0.081c-0.522-0.548-1.094-1.045-1.623-1.586
			c-0.418-0.427-0.844-0.846-1.267-1.268c-0.079-0.079-0.155-0.161-0.251-0.223c-0.058-0.037-0.111-0.089-0.141-0.156
			c0.082-0.126,0.182-0.238,0.288-0.343c-0.015,0.092,0.053,0.139,0.107,0.191c0.534,0.518,1.046,1.057,1.591,1.564
			c0.51,0.474,0.99,0.982,1.482,1.475c0.059,0.059,0.114,0.122,0.209,0.112C27.577,41.016,27.484,41.117,27.387,41.214z"/>
		<path fill="#AB0606" d="M30.101,37.988c-0.076-0.004-0.131-0.042-0.183-0.096c-0.55-0.578-1.149-1.106-1.71-1.674
			c-0.428-0.434-0.86-0.863-1.292-1.292c-0.079-0.079-0.164-0.152-0.247-0.227l0,0.001c0.056-0.009,0.078-0.047,0.081-0.099
			c0.048-0.08,0.107-0.151,0.178-0.212c0.031,0.059,0.084,0.099,0.13,0.145c0.561,0.562,1.113,1.135,1.688,1.682
			c0.502,0.478,0.992,0.968,1.484,1.454c0.025,0.025,0.055,0.044,0.083,0.066c-0.038,0.066-0.082,0.127-0.145,0.172
			c-0.02,0.007-0.032,0.021-0.035,0.042c0,0,0.003-0.004,0.003-0.004C30.115,37.952,30.103,37.965,30.101,37.988L30.101,37.988z"/>
		<path fill="#DD0707" d="M27.651,40.899c-0.095,0.009-0.15-0.053-0.209-0.112c-0.492-0.493-0.972-1.001-1.482-1.475
			c-0.545-0.507-1.057-1.046-1.591-1.564c-0.054-0.053-0.122-0.099-0.107-0.191l0.003-0.004c0.011-0.012,0.021-0.024,0.032-0.036
			l0.001-0.001c0.011-0.013,0.022-0.026,0.033-0.039l-0.002,0.002c0.02-0.008,0.031-0.022,0.036-0.042
			c0.027-0.052,0.059-0.099,0.11-0.131c-0.001,0.069,0.053,0.103,0.094,0.144c0.289,0.29,0.568,0.59,0.869,0.866
			c0.774,0.708,1.488,1.477,2.24,2.208c0.054,0.052,0.096,0.124,0.185,0.127C27.804,40.743,27.735,40.827,27.651,40.899z"/>
		<path fill="#D80707" d="M28.171,40.284c0.004-0.029,0.013-0.055,0.048-0.06C28.212,40.252,28.198,40.273,28.171,40.284z"/>
		<path fill="#8F0505" d="M31.874,35.882c0.011-0.013,0.022-0.025,0.033-0.038C31.906,35.865,31.895,35.877,31.874,35.882z"/>
		<path fill="#8F0505" d="M31.841,35.921c0.003-0.02,0.015-0.034,0.034-0.041C31.873,35.902,31.862,35.916,31.841,35.921z"/>
		<path fill="#8F0505" d="M31.809,35.96c0.002-0.022,0.013-0.036,0.035-0.042C31.841,35.939,31.83,35.954,31.809,35.96z"/>
		<path fill="#980505" d="M31.415,36.429c0.003-0.025,0.016-0.041,0.04-0.048C31.45,36.403,31.437,36.42,31.415,36.429z"/>
		<path fill="#980505" d="M31.373,36.479c0.009-0.01,0.017-0.019,0.026-0.029C31.399,36.468,31.39,36.476,31.373,36.479z"/>
		<path fill="#980505" d="M31.339,36.519c0.01-0.012,0.021-0.024,0.031-0.036C31.37,36.504,31.359,36.515,31.339,36.519z"/>
		<path fill="#AB0606" d="M30.313,37.738c0.003-0.022,0.015-0.036,0.036-0.042C30.345,37.716,30.335,37.732,30.313,37.738z"/>
		<path fill="#B00606" d="M30.134,37.95c0.004-0.021,0.016-0.035,0.035-0.042C30.166,37.929,30.155,37.944,30.134,37.95z"/>
		<path fill="#B00606" d="M30.101,37.988c0.002-0.023,0.014-0.037,0.036-0.042C30.134,37.967,30.122,37.982,30.101,37.988z"/>
		<path fill="#D10707" d="M28.572,39.803c0.002-0.024,0.016-0.038,0.039-0.044C28.605,39.781,28.594,39.797,28.572,39.803z"/>
		<path fill="#D80707" d="M28.214,40.228c0.004-0.022,0.017-0.036,0.038-0.042C28.248,40.207,28.236,40.222,28.214,40.228z"/>
		<path fill="#D10707" d="M35.503,24.212c0.129-0.177,0.269-0.343,0.422-0.499c0.019-0.007,0.031-0.021,0.035-0.041
			c0,0-0.002,0.001-0.002,0.001c0.028,0.022,0.058,0.041,0.083,0.066c0.655,0.651,1.305,1.307,1.975,1.943
			c0.408,0.387,0.798,0.794,1.196,1.193c0.046,0.046,0.099,0.085,0.13,0.145l-0.001,0.002c-0.011,0.013-0.022,0.025-0.033,0.038
			c-0.128,0.178-0.268,0.345-0.422,0.501c-0.006-0.072-0.062-0.111-0.106-0.158c-0.184-0.201-0.4-0.367-0.593-0.558
			c-0.864-0.858-1.717-1.728-2.603-2.565C35.559,24.254,35.53,24.234,35.503,24.212z"/>
		<path fill="#A50505" d="M33.371,26.738c0.118-0.165,0.25-0.317,0.39-0.462c0.046-0.001,0.077,0.025,0.106,0.055
			c0.212,0.223,0.455,0.412,0.67,0.631c0.551,0.562,1.111,1.115,1.668,1.671c0.038,0.038,0.074,0.077,0.115,0.11
			c0.313,0.254,0.583,0.551,0.858,0.844c0,0,0.001-0.001,0.001-0.001c-0.021,0.006-0.034,0.019-0.036,0.042l0.004-0.004
			c-0.057,0.009-0.078,0.046-0.082,0.099c-0.082,0.121-0.173,0.233-0.281,0.332c-0.025-0.064-0.079-0.102-0.125-0.148
			c-0.364-0.363-0.734-0.72-1.104-1.077c-0.636-0.611-1.251-1.244-1.874-1.867C33.59,26.871,33.495,26.785,33.371,26.738z"/>
		<path fill="#B50606" d="M34.152,25.813c0.07-0.105,0.148-0.204,0.243-0.287c0.019-0.007,0.031-0.021,0.035-0.041
			c0,0-0.003,0.004-0.003,0.004c0.022-0.006,0.034-0.02,0.036-0.042c0,0-0.004,0.004-0.004,0.004
			c0.035-0.004,0.044-0.03,0.048-0.059c0,0,0.003-0.004,0.003-0.004c0.075-0.014,0.12,0.035,0.167,0.081
			c0.442,0.429,0.871,0.87,1.319,1.293c0.616,0.582,1.203,1.194,1.802,1.794c0.046,0.046,0.1,0.084,0.125,0.148
			c-0.118,0.165-0.246,0.322-0.391,0.464c-0.001-0.081-0.065-0.123-0.113-0.173c-0.256-0.262-0.531-0.506-0.792-0.762
			c-0.799-0.782-1.575-1.588-2.393-2.352C34.208,25.856,34.179,25.835,34.152,25.813z"/>
		<path fill="#8F0505" d="M32.325,27.979c0.109-0.151,0.225-0.296,0.36-0.425c0.021-0.007,0.033-0.021,0.036-0.042
			c0,0-0.002,0.001-0.002,0.001c0.09,0.076,0.19,0.138,0.276,0.221c0.733,0.715,1.43,1.466,2.187,2.157
			c0.289,0.263,0.555,0.55,0.831,0.827c0.041,0.041,0.094,0.076,0.093,0.145c0,0-0.001,0.001-0.001,0.001
			c-0.011,0.013-0.022,0.026-0.033,0.039l0.002-0.002c-0.02,0.008-0.032,0.022-0.036,0.042c-0.096,0.138-0.201,0.267-0.323,0.383
			c0.013-0.091-0.05-0.14-0.105-0.194c-0.402-0.394-0.799-0.791-1.207-1.179c-0.622-0.593-1.22-1.211-1.827-1.82
			C32.504,28.062,32.434,27.99,32.325,27.979z"/>
		<path fill="#AC0606" d="M34.152,25.813c0.028,0.022,0.057,0.042,0.082,0.066c0.818,0.764,1.594,1.57,2.393,2.352
			c0.262,0.256,0.536,0.5,0.792,0.762c0.049,0.05,0.112,0.092,0.113,0.173c-0.105,0.151-0.222,0.292-0.354,0.421
			c-0.275-0.293-0.545-0.59-0.858-0.844c-0.041-0.033-0.078-0.073-0.115-0.11c-0.557-0.556-1.117-1.109-1.668-1.671
			c-0.215-0.22-0.459-0.408-0.67-0.631c-0.029-0.031-0.061-0.057-0.106-0.055c0.099-0.143,0.213-0.274,0.335-0.397
			c0.039-0.003,0.051-0.03,0.054-0.064L34.152,25.813z"/>
		<path fill="#C80707" d="M35.503,24.212c0.028,0.022,0.057,0.042,0.082,0.066c0.885,0.837,1.739,1.707,2.603,2.565
			c0.192,0.191,0.409,0.358,0.593,0.558c0.044,0.047,0.1,0.086,0.106,0.158c0,0,0.001-0.001,0.001-0.001
			c-0.021,0.006-0.034,0.019-0.037,0.041l0.004-0.004c-0.034,0.005-0.043,0.03-0.047,0.06c-0.083,0.119-0.174,0.232-0.281,0.332
			c0-0.075-0.057-0.114-0.103-0.159c-0.243-0.244-0.489-0.484-0.729-0.73c-0.786-0.806-1.622-1.56-2.406-2.369
			c-0.041-0.042-0.077-0.093-0.145-0.092C35.251,24.485,35.371,24.343,35.503,24.212z"/>
		<path fill="#BC0606" d="M37.923,28.703c-0.025-0.064-0.08-0.102-0.125-0.148c-0.599-0.6-1.186-1.212-1.802-1.794
			c-0.448-0.423-0.877-0.864-1.319-1.293c-0.048-0.046-0.092-0.094-0.167-0.081c0.091-0.129,0.19-0.252,0.305-0.361
			c0.022-0.006,0.036-0.02,0.038-0.043c0,0-0.004,0.004-0.004,0.004c0.079-0.032,0.118,0.027,0.164,0.071
			c0.402,0.385,0.789,0.784,1.193,1.167c0.663,0.627,1.294,1.288,1.943,1.93c0.069,0.068,0.091,0.13,0.054,0.216
			C38.122,28.491,38.031,28.604,37.923,28.703z"/>
		<path fill="#970505" d="M36.105,30.862c0.001-0.069-0.052-0.104-0.093-0.145c-0.276-0.277-0.542-0.564-0.831-0.827
			c-0.757-0.691-1.454-1.442-2.187-2.157c-0.085-0.083-0.185-0.146-0.276-0.221c0.096-0.139,0.202-0.269,0.325-0.385
			c0.045,0,0.078,0.022,0.108,0.053c0.191,0.202,0.413,0.37,0.608,0.568c0.56,0.57,1.128,1.132,1.693,1.696
			c0.042,0.042,0.084,0.084,0.129,0.122c0.318,0.266,0.601,0.567,0.881,0.871c0,0,0.001-0.001,0.001-0.001
			c-0.019,0.007-0.03,0.021-0.034,0.04l0.003-0.003c-0.021,0.007-0.034,0.022-0.037,0.044
			C36.312,30.645,36.214,30.758,36.105,30.862z"/>
		<path fill="#9D0505" d="M36.463,30.438c-0.28-0.304-0.563-0.605-0.881-0.871c-0.045-0.038-0.087-0.08-0.129-0.122
			c-0.565-0.565-1.133-1.126-1.693-1.696c-0.195-0.198-0.417-0.367-0.608-0.568c-0.03-0.031-0.063-0.053-0.108-0.053
			c0.077-0.119,0.17-0.225,0.271-0.324c0.038-0.004,0.049-0.03,0.053-0.062c0,0,0.003-0.003,0.003-0.003
			c0.124,0.047,0.219,0.133,0.31,0.225c0.624,0.624,1.238,1.256,1.874,1.867c0.371,0.356,0.74,0.714,1.104,1.077
			c0.046,0.045,0.1,0.084,0.125,0.148C36.69,30.193,36.583,30.321,36.463,30.438z"/>
		<path fill="#D90707" d="M39.342,27.019c-0.03-0.06-0.084-0.099-0.13-0.145c-0.397-0.399-0.788-0.805-1.196-1.193
			c-0.67-0.636-1.321-1.291-1.975-1.943c-0.025-0.025-0.055-0.044-0.083-0.066c0.084-0.128,0.185-0.241,0.293-0.349
			c0.023,0.018,0.049,0.033,0.069,0.054c0.583,0.604,1.215,1.158,1.799,1.761c0.367,0.378,0.743,0.746,1.116,1.118
			c0.05,0.05,0.105,0.094,0.16,0.139c0.094,0.077,0.202,0.147,0.239,0.276c0,0,0.001-0.002,0.001-0.002
			c-0.023,0.007-0.035,0.023-0.039,0.046C39.525,26.828,39.439,26.928,39.342,27.019z"/>
		<path fill="#E80808" d="M36.737,22.749c0.085-0.129,0.187-0.243,0.296-0.351c0.028,0.022,0.057,0.042,0.082,0.066
			c0.658,0.639,1.286,1.308,1.961,1.931c0.418,0.385,0.807,0.801,1.209,1.204c0.046,0.046,0.099,0.086,0.129,0.146
			c0,0,0.001-0.001,0.001-0.001c-0.021,0.006-0.033,0.02-0.036,0.041l0.004-0.004c-0.024,0.007-0.036,0.024-0.039,0.048
			c-0.06,0.098-0.137,0.183-0.22,0.262c-0.01-0.084-0.093-0.102-0.14-0.15c-0.839-0.866-1.732-1.676-2.573-2.54
			c-0.177-0.182-0.359-0.36-0.539-0.539C36.83,22.82,36.795,22.771,36.737,22.749z"/>
		<path fill="#C20606" d="M38.204,28.371c0.037-0.086,0.015-0.147-0.054-0.216c-0.649-0.642-1.28-1.302-1.943-1.93
			c-0.404-0.383-0.792-0.782-1.193-1.167c-0.046-0.044-0.085-0.103-0.164-0.071c0.085-0.128,0.183-0.244,0.294-0.349
			c0.068-0.001,0.105,0.05,0.145,0.092c0.783,0.808,1.62,1.563,2.406,2.369c0.24,0.246,0.486,0.486,0.729,0.73
			c0.045,0.045,0.103,0.084,0.103,0.159C38.432,28.126,38.323,28.253,38.204,28.371z"/>
		<path fill="#890404" d="M32.325,27.979c0.109,0.011,0.179,0.083,0.251,0.155c0.607,0.608,1.205,1.227,1.827,1.82
			c0.407,0.388,0.805,0.785,1.207,1.179c0.055,0.054,0.118,0.103,0.105,0.194c-0.07,0.107-0.151,0.206-0.246,0.292
			c-0.001-0.082-0.065-0.123-0.114-0.172c-0.293-0.292-0.593-0.576-0.891-0.862c-0.622-0.599-1.224-1.219-1.836-1.828
			c-0.104-0.104-0.218-0.198-0.332-0.291c-0.026-0.021-0.078-0.082-0.101,0.011c-0.056-0.06-0.12-0.113-0.145-0.196
			C32.141,28.18,32.233,28.079,32.325,27.979z"/>
		<path fill="#ED0808" d="M40.414,25.745c-0.03-0.06-0.083-0.1-0.129-0.146c-0.402-0.403-0.791-0.818-1.209-1.204
			c-0.675-0.623-1.303-1.292-1.961-1.931c-0.025-0.024-0.055-0.044-0.082-0.066c0.069-0.105,0.148-0.203,0.242-0.287
			c0.068-0.001,0.106,0.048,0.146,0.09c0.678,0.703,1.407,1.354,2.09,2.053c0.344,0.352,0.695,0.696,1.042,1.044
			c0.045,0.045,0.105,0.081,0.106,0.157C40.589,25.562,40.509,25.659,40.414,25.745z"/>
		<path fill="#DE0707" d="M39.634,26.671c-0.036-0.129-0.144-0.199-0.239-0.276c-0.055-0.045-0.11-0.089-0.16-0.139
			c-0.373-0.372-0.749-0.74-1.116-1.118c-0.585-0.603-1.216-1.157-1.799-1.761c-0.02-0.021-0.046-0.036-0.069-0.054
			c0.038-0.071,0.092-0.128,0.151-0.181c0.008-0.009,0.017-0.019,0.025-0.028c0,0,0.003-0.004,0.003-0.004
			c0.01-0.012,0.021-0.023,0.031-0.035c0,0,0.001-0.001,0.001-0.001c0.011-0.001,0.023-0.001,0.034-0.001
			c0.019,0.014,0.041,0.024,0.057,0.041c0.339,0.355,0.717,0.668,1.06,1.02c0.487,0.5,0.986,0.989,1.479,1.483
			c0.038,0.038,0.075,0.076,0.116,0.109c0.246,0.195,0.458,0.424,0.667,0.657l0-0.001c-0.011,0.014-0.023,0.027-0.034,0.041
			l0.003-0.003c-0.021,0.007-0.033,0.022-0.037,0.044C39.766,26.545,39.704,26.611,39.634,26.671z"/>
		<path fill="#E30707" d="M36.737,22.749c0.058,0.022,0.094,0.071,0.135,0.112c0.18,0.179,0.362,0.357,0.539,0.539
			c0.841,0.864,1.734,1.674,2.573,2.54c0.047,0.049,0.131,0.066,0.14,0.15c-0.035,0.062-0.077,0.117-0.136,0.158
			c-0.029-0.068-0.088-0.111-0.138-0.16c-0.782-0.773-1.544-1.567-2.349-2.317c-0.264-0.246-0.512-0.509-0.767-0.765
			c-0.048-0.049-0.093-0.095-0.165-0.039l-0.009-0.009C36.605,22.877,36.668,22.81,36.737,22.749z"/>
		<path fill="#A50505" d="M33.368,26.741c-0.004,0.032-0.015,0.059-0.053,0.062C33.325,26.776,33.34,26.753,33.368,26.741z"/>
		<path fill="#B50606" d="M34.15,25.815c-0.004,0.034-0.015,0.06-0.054,0.064C34.107,25.851,34.12,25.826,34.15,25.815z"/>
		<path fill="#BC0606" d="M34.507,25.391c-0.004,0.03-0.014,0.055-0.048,0.059C34.465,25.423,34.481,25.403,34.507,25.391z"/>
		<path fill="#E30707" d="M36.528,22.997c0.003-0.02,0.013-0.033,0.033-0.038c0,0,0.009,0.009,0.009,0.009
			c-0.012,0.012-0.024,0.024-0.036,0.036C36.534,23.004,36.528,22.997,36.528,22.997z"/>
		<path fill="#E30707" d="M36.497,23.072c-0.011,0-0.023,0.001-0.034,0.001c0.002-0.02,0.012-0.033,0.032-0.038
			c0,0,0.004,0.003,0.004,0.003C36.498,23.05,36.498,23.061,36.497,23.072z"/>
		<path fill="#E30707" d="M36.462,23.075c-0.01,0.012-0.021,0.023-0.031,0.035C36.431,23.09,36.443,23.079,36.462,23.075z"/>
		<path fill="#E30707" d="M36.428,23.114c-0.008,0.009-0.017,0.019-0.025,0.028C36.402,23.125,36.411,23.117,36.428,23.114z"/>
		<path fill="#D90707" d="M35.96,23.671c-0.004,0.02-0.016,0.034-0.035,0.041C35.927,23.691,35.938,23.677,35.96,23.671z"/>
		<path fill="#C20606" d="M34.854,24.983c-0.003,0.023-0.016,0.037-0.038,0.043C34.82,25.005,34.832,24.989,34.854,24.983z"/>
		<path fill="#BC0606" d="M34.463,25.447c-0.002,0.022-0.014,0.036-0.036,0.042C34.43,25.467,34.441,25.452,34.463,25.447z"/>
		<path fill="#BC0606" d="M34.43,25.485c-0.004,0.021-0.016,0.034-0.035,0.041C34.398,25.505,34.409,25.491,34.43,25.485z"/>
		<path fill="#E30707" d="M36.495,23.036c0.002-0.02,0.012-0.034,0.032-0.039c0,0,0.006,0.006,0.006,0.006
			c-0.011,0.012-0.023,0.024-0.034,0.036L36.495,23.036z"/>
		<path fill="#970505" d="M32.721,27.511c-0.003,0.022-0.015,0.036-0.036,0.042C32.688,27.532,32.699,27.517,32.721,27.511z"/>
		<path fill="#840404" d="M35.468,31.618c-0.084,0.131-0.189,0.244-0.295,0.356c-0.09-0.018-0.133-0.096-0.185-0.157
			c-0.354-0.419-0.706-0.84-1.058-1.262c-0.337-0.403-0.672-0.807-1.008-1.21c-0.095-0.113-0.192-0.224-0.289-0.336
			c-0.034-0.04-0.081-0.071-0.087-0.13c-0.004-0.021-0.016-0.035-0.036-0.042c0,0,0.001,0.001,0.001,0.001
			c-0.012-0.012-0.024-0.025-0.036-0.037c0,0,0.001,0.001,0.001,0.001c-0.012-0.012-0.023-0.025-0.035-0.037c0,0,0,0,0,0
			c-0.011-0.012-0.023-0.024-0.034-0.036c0,0-0.001-0.001-0.001-0.001c-0.011-0.012-0.021-0.023-0.032-0.035
			c0,0-0.002-0.003-0.002-0.003c-0.003-0.028-0.01-0.054-0.04-0.066c0,0,0.002,0.001,0.002,0.001
			c-0.012-0.012-0.024-0.025-0.036-0.037c0,0,0.001,0.001,0.001,0.001c-0.012-0.012-0.024-0.025-0.036-0.037
			c0,0,0.001,0.001,0.001,0.001c-0.012-0.012-0.023-0.025-0.035-0.037c0,0,0-0.001,0,0c-0.011-0.012-0.022-0.024-0.033-0.036
			c0,0-0.002-0.003-0.002-0.003c0.023-0.093,0.075-0.032,0.101-0.011c0.114,0.093,0.228,0.187,0.332,0.291
			c0.612,0.609,1.215,1.228,1.836,1.828c0.297,0.287,0.598,0.571,0.891,0.862C35.403,31.495,35.467,31.536,35.468,31.618z"/>
		<path fill="#830404" d="M28.705,32.282c0.06-0.104,0.147-0.186,0.223-0.277c0.286,0.337,0.572,0.675,0.858,1.012
			c0.145,0.171,0.288,0.344,0.434,0.514c0.046,0.054,0.094,0.106,0.124,0.171c0.004,0.02,0.016,0.034,0.036,0.041
			c0,0-0.001-0.001-0.001-0.001c0.012,0.012,0.023,0.025,0.035,0.037c0,0,0,0,0,0c0.011,0.012,0.023,0.024,0.034,0.036
			c0,0,0.001,0.001,0.001,0.001c0.011,0.012,0.021,0.023,0.032,0.035c0,0,0.002,0.003,0.002,0.003
			c0.003,0.029,0.01,0.054,0.04,0.066c0,0-0.002-0.001-0.002-0.001c0.012,0.012,0.024,0.025,0.036,0.037
			c0,0-0.001-0.001-0.001-0.001c0.012,0.012,0.024,0.025,0.036,0.037c0,0-0.001-0.001-0.001-0.001
			c0.012,0.012,0.023,0.024,0.035,0.037c0,0,0,0.001,0,0.001c0.011,0.012,0.022,0.024,0.033,0.035c0,0,0.002,0.002,0.002,0.002
			c0.01,0.01,0.021,0.021,0.031,0.031c0.005,0.009,0.007,0.019,0.008,0.029c0.004,0.021,0.016,0.035,0.035,0.042
			c0,0-0.001-0.001-0.001-0.001c0.012,0.012,0.024,0.025,0.036,0.037c0,0-0.001-0.001-0.001-0.001
			c0.012,0.012,0.023,0.025,0.035,0.037c0,0,0,0,0,0c0.011,0.012,0.022,0.024,0.033,0.036c0,0,0.002,0.002,0.002,0.002
			c0.01,0.01,0.021,0.021,0.031,0.031c0.005,0.009,0.007,0.019,0.008,0.029c0.004,0.021,0.016,0.035,0.036,0.042
			c0,0-0.001-0.001-0.001-0.001c0.012,0.012,0.024,0.025,0.036,0.037c0,0-0.001-0.001-0.001-0.001
			c0.012,0.012,0.024,0.025,0.035,0.037c0,0,0,0,0,0c0.011,0.012,0.023,0.024,0.034,0.037c0,0,0.001,0.001,0.001,0.001
			c0.011,0.011,0.021,0.022,0.032,0.033c0.005,0.009,0.007,0.018,0.007,0.028c0.004,0.021,0.015,0.035,0.036,0.042
			c0,0-0.001-0.001-0.001-0.001c0.012,0.012,0.024,0.025,0.036,0.037c0,0-0.001-0.001-0.001-0.001
			c0.012,0.012,0.024,0.025,0.035,0.037c0,0,0,0,0,0c0.011,0.012,0.023,0.024,0.034,0.036c0,0,0,0.001,0,0.001
			c-0.015,0.023-0.039,0.035-0.059,0.018c-0.088-0.07-0.176-0.139-0.258-0.215c-0.712-0.661-1.391-1.355-2.078-2.042
			c-0.046-0.046-0.099-0.085-0.129-0.146c0,0,0,0,0,0C28.683,32.309,28.694,32.295,28.705,32.282z"/>
		<path fill="#870404" d="M30.524,33.921c-0.03-0.012-0.037-0.038-0.04-0.066C30.513,33.868,30.522,33.892,30.524,33.921z"/>
		<path fill="#890404" d="M32.332,28.624c0.03,0.012,0.037,0.037,0.04,0.066C32.343,28.677,32.334,28.653,32.332,28.624z"/>
		<path fill="#870404" d="M30.481,33.852c-0.011-0.012-0.021-0.023-0.032-0.035C30.46,33.829,30.471,33.841,30.481,33.852z"/>
		<path fill="#870404" d="M30.558,33.957c-0.012-0.012-0.024-0.025-0.036-0.037C30.534,33.932,30.546,33.945,30.558,33.957z"/>
		<path fill="#870404" d="M30.593,33.993c-0.012-0.012-0.024-0.025-0.036-0.037C30.569,33.969,30.581,33.981,30.593,33.993z"/>
		<path fill="#870404" d="M30.627,34.029c-0.012-0.012-0.023-0.024-0.035-0.037C30.604,34.005,30.615,34.017,30.627,34.029z"/>
		<path fill="#870404" d="M30.66,34.065c-0.011-0.012-0.022-0.024-0.033-0.035C30.638,34.042,30.649,34.054,30.66,34.065z"/>
		<path fill="#870404" d="M30.694,34.099c-0.01-0.01-0.021-0.021-0.031-0.031C30.673,34.078,30.683,34.089,30.694,34.099z"/>
		<path fill="#870404" d="M30.737,34.17c-0.02-0.007-0.032-0.021-0.035-0.042C30.713,34.142,30.725,34.156,30.737,34.17z"/>
		<path fill="#870404" d="M30.771,34.207c-0.012-0.012-0.024-0.025-0.036-0.037C30.747,34.182,30.759,34.194,30.771,34.207z"/>
		<path fill="#870404" d="M30.805,34.243c-0.012-0.012-0.023-0.025-0.035-0.037C30.782,34.218,30.793,34.231,30.805,34.243z"/>
		<path fill="#870404" d="M30.838,34.279c-0.011-0.012-0.022-0.024-0.033-0.036C30.816,34.255,30.827,34.267,30.838,34.279z"/>
		<path fill="#870404" d="M30.871,34.313c-0.01-0.01-0.021-0.021-0.031-0.031C30.851,34.292,30.861,34.302,30.871,34.313z"/>
		<path fill="#870404" d="M30.915,34.384c-0.02-0.007-0.032-0.021-0.036-0.042C30.891,34.356,30.903,34.37,30.915,34.384z"/>
		<path fill="#870404" d="M30.949,34.42c-0.012-0.012-0.024-0.025-0.036-0.037C30.925,34.395,30.937,34.407,30.949,34.42z"/>
		<path fill="#870404" d="M30.984,34.456c-0.012-0.012-0.024-0.025-0.035-0.037C30.96,34.431,30.972,34.444,30.984,34.456z"/>
		<path fill="#870404" d="M31.017,34.492c-0.011-0.012-0.023-0.024-0.034-0.037C30.995,34.468,31.006,34.48,31.017,34.492z"/>
		<path fill="#870404" d="M31.05,34.526c-0.011-0.011-0.021-0.022-0.032-0.033C31.029,34.504,31.04,34.515,31.05,34.526z"/>
		<path fill="#870404" d="M31.093,34.597c-0.02-0.007-0.032-0.021-0.036-0.042C31.069,34.569,31.081,34.583,31.093,34.597z"/>
		<path fill="#870404" d="M31.127,34.633c-0.012-0.012-0.024-0.025-0.036-0.037C31.103,34.608,31.115,34.621,31.127,34.633z"/>
		<path fill="#870404" d="M31.162,34.669c-0.012-0.012-0.024-0.025-0.035-0.037C31.138,34.645,31.15,34.657,31.162,34.669z"/>
		<path fill="#870404" d="M31.195,34.705c-0.011-0.012-0.023-0.024-0.034-0.036C31.173,34.681,31.184,34.693,31.195,34.705z"/>
		<path fill="#890404" d="M32.51,28.837c0.02,0.007,0.032,0.021,0.036,0.042C32.534,28.865,32.522,28.851,32.51,28.837z"/>
		<path fill="#890404" d="M32.475,28.801c0.012,0.012,0.024,0.025,0.036,0.037C32.499,28.826,32.487,28.813,32.475,28.801z"/>
		<path fill="#890404" d="M32.441,28.765c0.012,0.012,0.023,0.025,0.035,0.037C32.465,28.79,32.453,28.777,32.441,28.765z"/>
		<path fill="#890404" d="M32.408,28.729c0.011,0.012,0.023,0.024,0.034,0.036C32.43,28.753,32.419,28.741,32.408,28.729z"/>
		<path fill="#890404" d="M32.375,28.693c0.011,0.012,0.021,0.023,0.032,0.035C32.396,28.716,32.385,28.704,32.375,28.693z"/>
		<path fill="#870404" d="M30.38,33.744c-0.019-0.007-0.031-0.021-0.036-0.041C30.357,33.716,30.369,33.73,30.38,33.744z"/>
		<path fill="#890404" d="M32.297,28.588c0.012,0.012,0.024,0.025,0.036,0.037C32.321,28.613,32.309,28.6,32.297,28.588z"/>
		<path fill="#890404" d="M32.263,28.552c0.012,0.012,0.024,0.025,0.036,0.037C32.287,28.576,32.275,28.564,32.263,28.552z"/>
		<path fill="#890404" d="M32.229,28.515c0.012,0.012,0.023,0.025,0.035,0.037C32.252,28.54,32.24,28.528,32.229,28.515z"/>
		<path fill="#890404" d="M32.196,28.479c0.011,0.012,0.022,0.024,0.033,0.036C32.218,28.503,32.207,28.491,32.196,28.479z"/>
		<path fill="#870404" d="M30.415,33.78c-0.012-0.012-0.023-0.025-0.035-0.037C30.391,33.755,30.403,33.768,30.415,33.78z"/>
		<path fill="#870404" d="M30.448,33.816c-0.011-0.012-0.023-0.024-0.034-0.036C30.426,33.792,30.437,33.804,30.448,33.816z"/>
		<path fill="#980505" d="M28.019,33.097c0.007-0.028,0.02-0.05,0.049-0.06C28.064,33.067,28.056,33.093,28.019,33.097z"/>
		<path fill="#980505" d="M27.987,33.135c0.004-0.021,0.015-0.036,0.036-0.042C28.021,33.116,28.009,33.13,27.987,33.135z"/>
		<path fill="#980505" d="M27.954,33.173c0.003-0.022,0.014-0.036,0.036-0.042C27.987,33.153,27.975,33.167,27.954,33.173z"/>
		<path fill="#D80707" d="M24.751,36.978c0.004-0.023,0.017-0.038,0.039-0.046C24.786,36.955,24.773,36.971,24.751,36.978z"/>
		<path fill="#9E0505" d="M27.629,33.561c0.006-0.028,0.021-0.048,0.048-0.059C27.673,33.531,27.664,33.556,27.629,33.561z"/>
		<path fill="#9E0505" d="M27.597,33.598c0.003-0.022,0.015-0.036,0.037-0.042C27.631,33.579,27.618,33.593,27.597,33.598z"/>
		<path fill="#AB0606" d="M26.931,34.386c0.002-0.02,0.013-0.032,0.032-0.037C26.953,34.362,26.942,34.374,26.931,34.386z"/>
		<path fill="#C20606" d="M25.826,35.701c0.002-0.021,0.013-0.035,0.034-0.041C25.848,35.674,25.837,35.688,25.826,35.701z"/>
		<path fill="#C20606" d="M25.793,35.738c0.002-0.02,0.013-0.032,0.032-0.036C25.815,35.714,25.804,35.726,25.793,35.738z"/>
		<path fill="#A50505" d="M27.354,33.887c0.002-0.021,0.014-0.035,0.034-0.042C27.377,33.859,27.365,33.873,27.354,33.887z"/>
		<path fill="#A50505" d="M27.322,33.923c0.002-0.021,0.013-0.033,0.033-0.037C27.343,33.898,27.332,33.911,27.322,33.923z"/>
		<path fill="#C70606" d="M25.531,36.052c0.006-0.028,0.021-0.048,0.047-0.059C25.575,36.022,25.565,36.046,25.531,36.052z"/>
		<path fill="#B00606" d="M26.67,34.7c0.016-0.042,0.04-0.077,0.081-0.099C26.747,34.653,26.726,34.691,26.67,34.7z"/>
		<path fill="#E20707" d="M24.328,37.479c0.003-0.022,0.015-0.036,0.036-0.042C24.36,37.457,24.348,37.471,24.328,37.479z"/>
		<path fill="#E20707" d="M24.297,37.516c0.002-0.021,0.013-0.034,0.033-0.039C24.319,37.49,24.308,37.503,24.297,37.516z"/>
		<path fill="#E20707" d="M24.265,37.552c0.001-0.021,0.012-0.032,0.032-0.036C24.286,37.529,24.275,37.54,24.265,37.552z"/>
		<path fill="#D90707" d="M39.34,27.021c-0.002,0.02-0.013,0.033-0.033,0.038C39.319,27.046,39.33,27.033,39.34,27.021z"/>
		<path fill="#AC0606" d="M37.147,29.624c-0.015,0.043-0.041,0.077-0.082,0.099C37.069,29.67,37.09,29.632,37.147,29.624z"/>
		<path fill="#AC0606" d="M37.179,29.586c-0.003,0.021-0.015,0.036-0.036,0.042C37.146,29.606,37.158,29.592,37.179,29.586z"/>
		<path fill="#970505" d="M36.073,30.9c-0.002,0.022-0.015,0.036-0.036,0.042C36.042,30.922,36.053,30.908,36.073,30.9z"/>
		<path fill="#970505" d="M36.105,30.863c-0.002,0.021-0.012,0.034-0.033,0.039C36.083,30.889,36.094,30.876,36.105,30.863z"/>
		<path fill="#D10707" d="M38.854,27.596c-0.006,0.028-0.02,0.049-0.047,0.06C38.811,27.626,38.82,27.601,38.854,27.596z"/>
		<path fill="#D10707" d="M38.887,27.558c-0.004,0.021-0.015,0.036-0.037,0.041C38.853,27.578,38.866,27.564,38.887,27.558z"/>
		<path fill="#9D0505" d="M36.431,30.474c-0.003,0.022-0.016,0.037-0.037,0.044C36.398,30.496,36.41,30.482,36.431,30.474z"/>
		<path fill="#9D0505" d="M36.463,30.437c-0.002,0.021-0.013,0.035-0.034,0.04C36.433,30.458,36.444,30.445,36.463,30.437z"/>
		<path fill="#DE0707" d="M39.635,26.669c-0.004,0.022-0.017,0.038-0.039,0.046C39.6,26.692,39.612,26.676,39.635,26.669z"/>
		<path fill="#ED0808" d="M40.415,25.743c-0.003,0.022-0.015,0.036-0.036,0.041C40.382,25.763,40.395,25.75,40.415,25.743z"/>
		<path fill="#ED0808" d="M40.383,25.78c-0.005,0.023-0.017,0.039-0.039,0.048C40.347,25.804,40.359,25.788,40.383,25.78z"/>
		<path fill="#E20707" d="M39.988,26.25c-0.023,0.056-0.062,0.099-0.111,0.133c-0.209-0.233-0.421-0.462-0.667-0.657
			c-0.041-0.033-0.079-0.072-0.116-0.109c-0.494-0.493-0.993-0.982-1.479-1.483c-0.342-0.352-0.721-0.665-1.06-1.02
			c-0.016-0.017-0.038-0.028-0.057-0.041c0.001-0.011,0.001-0.022,0.003-0.033c0.011-0.012,0.023-0.024,0.034-0.036
			c0.012-0.012,0.024-0.024,0.036-0.036c0.071-0.056,0.116-0.009,0.165,0.039c0.254,0.256,0.503,0.519,0.767,0.765
			c0.805,0.75,1.567,1.544,2.349,2.317C39.9,26.139,39.959,26.181,39.988,26.25z"/>
		<path fill="#E20707" d="M39.846,26.419c-0.003,0.022-0.016,0.037-0.037,0.044C39.813,26.441,39.825,26.426,39.846,26.419z"/>
		<path fill="#E20707" d="M39.878,26.382c-0.002,0.021-0.013,0.035-0.034,0.041C39.855,26.409,39.866,26.395,39.878,26.382z"/>
		<path fill="#870404" d="M28.705,32.282c-0.011,0.013-0.022,0.026-0.034,0.04C28.674,32.301,28.685,32.288,28.705,32.282z"/>
	</g>
</g>
</svg>
