<?xml version="1.0" encoding="utf-8"?>
<!-- Generator: Adobe Illustrator 22.0.0, SVG Export Plug-In . SVG Version: 6.00 Build 0)  -->
<svg version="1.1" id="Camada_1" xmlns="http://www.w3.org/2000/svg" xmlns:xlink="http://www.w3.org/1999/xlink" x="0px" y="0px"
	 width="64px" height="64px" viewBox="0 0 64 64" enable-background="new 0 0 64 64" xml:space="preserve">
<g>
	<g>
		<path fill="#9332B3" d="M33.967,13.351c0.15,1.074,0.443,2.118,0.669,3.175c0.381,1.779,0.801,3.55,1.178,5.33
			c0.077,0.362,0.208,0.465,0.576,0.432c2.468-0.22,4.938-0.419,7.407-0.621c2.122-0.174,4.245-0.342,6.368-0.516
			c2.456-0.202,4.912-0.408,7.367-0.61c1.775-0.146,3.551-0.288,5.326-0.432c0.372-0.03,0.744-0.06,1.141-0.024
			c-0.6,0.305-1.198,0.614-1.799,0.916c-5.885,2.956-11.77,5.912-17.654,8.868c-1.998,1.003-3.992,2.013-5.995,3.006
			c-0.274,0.136-0.358,0.253-0.274,0.577c0.835,3.224,1.647,6.455,2.466,9.683c0.029,0.114,0.125,0.251,0.036,0.34
			c-0.103,0.104-0.217-0.035-0.317-0.08c-3.911-1.738-7.823-3.476-11.728-5.228c-0.278-0.125-0.479-0.107-0.743,0.026
			c-4.543,2.288-9.092,4.563-13.638,6.846c-3.576,1.796-7.149,3.6-10.725,5.397c-0.125,0.063-0.239,0.176-0.472,0.127
			c4.786-5.789,9.547-11.549,14.337-17.343C11.642,30.582,5.821,27.961,0,25.339c0.005-0.024,0.01-0.048,0.015-0.072
			c1.313-0.11,2.626-0.22,3.939-0.329c2.509-0.208,5.018-0.416,7.528-0.622c2.056-0.169,4.112-0.335,6.167-0.502
			c2.656-0.216,5.313-0.434,7.969-0.647c0.145-0.012,0.244-0.061,0.338-0.175c2.635-3.191,5.273-6.378,7.91-9.567
			c0.015-0.018,0.014-0.048,0.02-0.073C33.913,13.351,33.94,13.351,33.967,13.351z M48.932,24.295
			c-0.119-0.005-0.239-0.022-0.357-0.013c-1.829,0.143-3.658,0.284-5.487,0.435c-3.056,0.252-6.112,0.505-9.166,0.772
			c-0.282,0.025-0.368-0.075-0.421-0.322c-0.271-1.269-0.546-2.537-0.838-3.802c-0.102-0.444-0.155-0.904-0.348-1.371
			c-0.146,0.169-0.261,0.297-0.371,0.429c-4.691,5.675-9.383,11.35-14.073,17.026c-1.108,1.341-2.21,2.687-3.315,4.031
			c-0.012,0.03-0.024,0.059-0.036,0.089c0.033-0.004,0.067-0.008,0.1-0.012c0.122-0.055,0.246-0.105,0.366-0.165
			c5.559-2.796,11.116-5.595,16.676-8.389c5.201-2.614,10.407-5.219,15.606-7.837c0.558-0.281,1.138-0.524,1.659-0.877
			c0.01-0.005,0.022-0.008,0.031-0.015c0.004-0.003,0.003-0.013,0.004-0.021C48.951,24.268,48.942,24.282,48.932,24.295z
			 M11.692,27.297c0.136,0.08,0.191,0.118,0.251,0.145c2.437,1.099,4.877,2.194,7.311,3.302c0.205,0.093,0.282,0.01,0.393-0.124
			c1.107-1.342,2.218-2.681,3.327-4.022c0.047-0.057,0.124-0.11,0.071-0.232C19.294,26.674,15.536,26.982,11.692,27.297z
			 M36.389,38.319c0-0.108,0.01-0.161-0.002-0.208c-0.287-1.142-0.582-2.281-0.862-3.425c-0.066-0.269-0.193-0.18-0.344-0.104
			c-1.053,0.528-2.107,1.054-3.16,1.583c-0.053,0.027-0.134,0.04-0.109,0.163C33.382,36.981,34.866,37.641,36.389,38.319z"/>
		<polygon fill="#9332B3" points="3.109,50.631 3.141,50.622 3.137,50.649 		"/>
		<path fill="#FEFD60" d="M14.557,41.48c1.105-1.344,2.207-2.69,3.315-4.031c4.69-5.676,9.381-11.351,14.073-17.026
			c0.11-0.133,0.225-0.26,0.371-0.429c0.192,0.468,0.245,0.928,0.348,1.371c0.291,1.264,0.567,2.533,0.838,3.802
			c0.053,0.247,0.139,0.347,0.421,0.322c3.055-0.267,6.11-0.52,9.166-0.772c1.828-0.151,3.658-0.292,5.487-0.435
			c0.118-0.009,0.238,0.008,0.357,0.013l-0.006-0.005c-0.521,0.352-1.101,0.596-1.659,0.877c-5.199,2.618-10.404,5.223-15.606,7.837
			c-5.56,2.794-11.117,5.593-16.676,8.389c-0.119,0.06-0.244,0.11-0.366,0.165C14.599,41.532,14.578,41.506,14.557,41.48z"/>
		<path fill="#FDFC60" d="M11.692,27.297c3.844-0.315,7.603-0.623,11.353-0.931c0.053,0.122-0.024,0.175-0.071,0.232
			c-1.109,1.341-2.22,2.679-3.327,4.022c-0.111,0.134-0.188,0.217-0.393,0.124c-2.434-1.108-4.873-2.202-7.311-3.302
			C11.882,27.415,11.828,27.377,11.692,27.297z"/>
		<path fill="#FCFB61" d="M36.389,38.319c-1.523-0.678-3.007-1.338-4.476-1.991c-0.026-0.123,0.056-0.136,0.109-0.163
			c1.053-0.529,2.107-1.055,3.16-1.583c0.151-0.076,0.279-0.165,0.344,0.104c0.28,1.143,0.575,2.283,0.862,3.425
			C36.4,38.158,36.389,38.211,36.389,38.319z"/>
		<path fill="#FEFD60" d="M48.932,24.295c0.009-0.014,0.019-0.027,0.028-0.041c-0.001,0.007,0,0.017-0.004,0.021
			c-0.009,0.007-0.02,0.01-0.031,0.015C48.926,24.29,48.932,24.295,48.932,24.295z"/>
		<path fill="#FEFD60" d="M14.62,41.558c-0.033,0.004-0.067,0.008-0.1,0.012c0.012-0.03,0.024-0.059,0.036-0.089
			C14.578,41.506,14.599,41.532,14.62,41.558z"/>
	</g>
</g>
</svg>
