<?xml version="1.0" encoding="utf-8"?>
<!-- Generator: Adobe Illustrator 22.0.0, SVG Export Plug-In . SVG Version: 6.00 Build 0)  -->
<svg version="1.1" id="Camada_1" xmlns="http://www.w3.org/2000/svg" xmlns:xlink="http://www.w3.org/1999/xlink" x="0px" y="0px"
	 width="64px" height="64px" viewBox="0 0 64 64" enable-background="new 0 0 64 64" xml:space="preserve">
<g>
	<g>
		<path fill="#49008E" d="M4.222,23.464c0.092-0.001,0.184-0.004,0.276-0.004c10.823,0,21.646,0,32.47,0c0.097,0,0.194,0,0.344,0
			c-0.29,0.356-0.545,0.672-0.802,0.986c-0.453,0.553-0.905,1.106-1.361,1.656c-0.351,0.425-0.71,0.844-1.061,1.269
			c-0.433,0.526-0.86,1.057-1.293,1.583c-0.35,0.426-0.708,0.845-1.059,1.271c-0.522,0.634-1.039,1.272-1.561,1.905
			c-0.351,0.425-0.74,0.823-1.051,1.276c-0.256,0.373-0.574,0.412-0.975,0.41c-2.143-0.014-4.286-0.007-6.429-0.007
			c-0.082,0-0.163,0-0.298,0c0.205,0.261,0.385,0.49,0.565,0.718c0.559,0.707,1.115,1.416,1.677,2.121
			c0.424,0.533,0.857,1.059,1.281,1.592c0.495,0.621,0.983,1.248,1.479,1.87c0.43,0.539,0.868,1.071,1.298,1.611
			c0.49,0.615,0.972,1.236,1.462,1.851c0.43,0.539,0.865,1.074,1.298,1.611c0.267,0.33,0.536,0.66,0.804,0.99
			c0.405,0.519,0.81,1.037,1.225,1.568c3.704-4.647,7.39-9.272,11.097-13.923c-0.855,0-1.665,0-2.474,0
			c-1.588-0.003-3.176-0.005-4.764-0.008c-0.217,0-0.435-0.003-0.652-0.004c0.028-0.154,0.148-0.249,0.238-0.361
			c0.448-0.56,0.906-1.112,1.355-1.67c0.588-0.731,1.17-1.467,1.757-2.199c0.5-0.623,1.005-1.243,1.505-1.866
			c0.526-0.654,1.047-1.312,1.574-1.966c0.444-0.552,0.896-1.098,1.34-1.651c0.51-0.635,1.011-1.277,1.521-1.913
			c0.511-0.636,1.03-1.266,1.541-1.901c0.521-0.648,1.034-1.301,1.556-1.949c0.517-0.642,1.043-1.276,1.558-1.919
			c0.505-0.629,0.998-1.267,1.503-1.895c0.516-0.643,1.043-1.277,1.559-1.919c0.588-0.731,1.167-1.469,1.756-2.2
			c0.517-0.642,1.043-1.276,1.559-1.919c0.438-0.545,0.863-1.1,1.301-1.645c0.516-0.642,1.043-1.276,1.56-1.918
			c0.672-0.833,1.344-1.666,2.004-2.508c0.165-0.21,0.377-0.389,0.476-0.648c0,0,0,0,0,0c0.081-0.044,0.163-0.087,0.145-0.202
			C61.96,1.032,62.377,0.496,62.841,0c0.108,0.02,0.026,0.103,0.05,0.151c-0.184,0.247-0.28,0.538-0.406,0.815
			c-0.458,1.006-0.925,2.009-1.385,3.013c-0.661,1.44-1.318,2.882-1.979,4.323c-0.461,1.005-0.927,2.008-1.387,3.013
			c-0.661,1.44-1.318,2.883-1.979,4.323c-0.376,0.82-0.757,1.639-1.136,2.458c-0.621,1.343-1.244,2.685-1.864,4.029
			c-0.203,0.44-0.395,0.884-0.604,1.351c2.906,0,5.788,0,8.688,0c-0.032,0.074-0.045,0.132-0.077,0.176
			c-0.272,0.378-0.558,0.746-0.819,1.131c-1.073,1.578-2.176,3.135-3.279,4.692c-0.702,0.991-1.403,1.983-2.09,2.985
			c-0.963,1.406-1.949,2.796-2.926,4.192c-0.819,1.168-1.633,2.34-2.456,3.505c-1.039,1.472-2.056,2.958-3.089,4.435
			c-0.996,1.424-2.007,2.836-2.995,4.265c-0.728,1.053-1.46,2.102-2.199,3.147c-1.012,1.431-2.006,2.874-3.011,4.311
			c-0.907,1.296-1.822,2.587-2.723,3.887c-0.464,0.67-0.929,1.34-1.402,2.004c-0.42,0.59-0.818,1.196-1.225,1.795
			c-0.033,0-0.067,0-0.1,0c0.01-0.054-0.021-0.089-0.052-0.13c-0.245-0.318-0.51-0.621-0.709-0.973
			c0.02-0.082-0.021-0.127-0.094-0.152l0,0c-0.023-0.157-0.148-0.249-0.232-0.369c-1.061-1.511-2.119-3.024-3.177-4.537
			c-0.734-1.049-1.466-2.099-2.199-3.147c-1.058-1.513-2.118-3.025-3.176-4.538c-0.734-1.049-1.467-2.098-2.199-3.148
			c-0.995-1.427-1.985-2.857-2.982-4.282c-1.148-1.641-2.301-3.278-3.452-4.917c-0.702-1.001-1.405-2.001-2.103-3.005
			c-1.027-1.474-2.048-2.953-3.076-4.426c-1.019-1.46-2.043-2.917-3.067-4.374c-0.443-0.631-0.902-1.252-1.329-1.895
			C4.464,23.903,4.255,23.733,4.222,23.464z"/>
		<path fill="#C8C9CB" d="M31.593,62.746c-0.255-0.084-0.331-0.338-0.475-0.52c-0.937-1.186-1.862-2.381-2.787-3.576
			c-0.645-0.834-1.279-1.677-1.925-2.511c-0.794-1.024-1.598-2.04-2.393-3.063c-0.637-0.82-1.267-1.645-1.903-2.466
			c-0.804-1.037-1.611-2.071-2.415-3.108c-0.586-0.755-1.168-1.512-1.753-2.267c-0.854-1.103-1.71-2.204-2.565-3.307
			c-0.58-0.748-1.16-1.497-1.739-2.245c-0.737-0.952-1.474-1.905-2.209-2.858c-0.837-1.085-1.671-2.171-2.511-3.255
			c-1.002-1.293-2.01-2.582-3.012-3.876c-0.844-1.09-1.682-2.184-2.526-3.274c-0.701-0.906-1.406-1.81-2.112-2.713
			c-0.045-0.058-0.111-0.099-0.167-0.149c0-0.033,0-0.067,0-0.1c1.04,0.001,2.08,0.003,3.12,0.004
			c0.033,0.268,0.242,0.439,0.379,0.644c0.427,0.642,0.885,1.263,1.329,1.895c1.023,1.457,2.048,2.914,3.067,4.374
			c1.028,1.473,2.049,2.952,3.076,4.426c0.699,1.003,1.401,2.004,2.103,3.005c1.15,1.639,2.304,3.276,3.452,4.917
			c0.997,1.425,1.988,2.855,2.982,4.282c0.732,1.05,1.465,2.099,2.199,3.148c1.058,1.513,2.118,3.025,3.176,4.538
			c0.734,1.049,1.466,2.099,2.199,3.147c1.058,1.513,2.116,3.026,3.177,4.537C31.445,62.497,31.569,62.589,31.593,62.746z"/>
		<path fill="#C8C9CB" d="M61.382,1.757c-0.099,0.259-0.311,0.438-0.476,0.648c-0.66,0.843-1.332,1.675-2.004,2.508
			c-0.517,0.642-1.044,1.276-1.56,1.918c-0.438,0.545-0.864,1.1-1.301,1.645c-0.516,0.642-1.043,1.276-1.559,1.919
			c-0.588,0.731-1.167,1.469-1.756,2.2c-0.517,0.642-1.043,1.276-1.559,1.919c-0.505,0.629-0.998,1.266-1.503,1.895
			c-0.516,0.643-1.042,1.277-1.558,1.919c-0.521,0.647-1.035,1.301-1.556,1.949c-0.511,0.636-1.03,1.265-1.541,1.901
			c-0.51,0.635-1.011,1.277-1.521,1.913c-0.443,0.553-0.895,1.099-1.34,1.651c-0.526,0.654-1.048,1.312-1.574,1.966
			c-0.5,0.623-1.005,1.243-1.505,1.866c-0.587,0.732-1.169,1.468-1.757,2.199c-0.449,0.559-0.907,1.111-1.355,1.67
			c-0.09,0.112-0.21,0.207-0.238,0.361c-0.808,0-1.616,0-2.445,0c0.08-0.261,0.292-0.391,0.436-0.564
			c0.511-0.614,1.056-1.199,1.583-1.8c0.658-0.751,1.308-1.508,1.964-2.26c0.405-0.464,0.821-0.919,1.226-1.383
			c0.531-0.607,1.054-1.221,1.584-1.829c0.388-0.445,0.784-0.885,1.173-1.329c0.565-0.644,1.126-1.292,1.69-1.936
			c0.389-0.444,0.784-0.885,1.173-1.329c0.565-0.644,1.126-1.292,1.69-1.936c0.389-0.444,0.784-0.884,1.173-1.329
			c0.547-0.626,1.09-1.257,1.638-1.883c0.395-0.451,0.796-0.897,1.191-1.347c0.559-0.638,1.114-1.28,1.673-1.918
			c0.395-0.451,0.796-0.896,1.191-1.347c0.542-0.62,1.078-1.245,1.62-1.864c0.411-0.47,0.832-0.931,1.243-1.401
			c0.542-0.619,1.078-1.245,1.62-1.864c0.4-0.457,0.808-0.908,1.208-1.365c0.554-0.632,1.102-1.268,1.655-1.9
			c0.389-0.445,0.781-0.887,1.174-1.328C61.234,1.829,61.283,1.751,61.382,1.757z"/>
		<path fill="#C8C9CB" d="M41.136,33.816c0.81,0,1.619,0,2.474,0c-3.707,4.652-7.393,9.276-11.097,13.923
			c-0.415-0.531-0.82-1.05-1.225-1.568c0.279-0.241,0.466-0.559,0.696-0.841c0.645-0.79,1.275-1.594,1.91-2.392
			c0.625-0.786,1.249-1.572,1.875-2.357c0.615-0.773,1.231-1.545,1.845-2.317c0.692-0.87,1.383-1.741,2.075-2.61
			c0.429-0.539,0.86-1.076,1.295-1.61C41.043,33.971,41.097,33.9,41.136,33.816z"/>
		<path fill="#C8C9CB" d="M61.527,1.555c0.018,0.115-0.064,0.158-0.145,0.202C61.376,1.65,61.403,1.568,61.527,1.555z"/>
		<path fill="#C8C9CB" d="M31.687,62.897c-0.099-0.009-0.097-0.08-0.094-0.152C31.666,62.77,31.707,62.815,31.687,62.897z"/>
	</g>
</g>
</svg>
